<?xml version="1.0" standalone="no"?>
<!DOCTYPE svg PUBLIC "-//W3C//DTD SVG 1.1//EN" "http://www.w3.org/Graphics/SVG/1.1/DTD/svg11.dtd" >
<svg xmlns="http://www.w3.org/2000/svg" xmlns:xlink="http://www.w3.org/1999/xlink" version="1.1">
<metadata></metadata>
<defs>
<font id="marianina_wd_fybold" horiz-adv-x="997" >
<font-face units-per-em="2048" ascent="1638" descent="-410" />
<missing-glyph horiz-adv-x="389" />
<glyph unicode="&#xfb01;" horiz-adv-x="1153" d="M127 0v1024q0 197 91 313.5t282 116.5q49 0 86 -6t66.5 -17.5t53 -26.5t46.5 -32l-115 -139q-20 18 -49 32.5t-70 14.5q-45 0 -76.5 -17.5t-51 -44t-28 -60.5t-8.5 -66v-35h277v-176h-277v-881h-227zM772 1270q0 53 35 89t94 36t92 -36t33 -89t-32.5 -89t-92.5 -36 q-59 0 -94 36t-35 89zM788 0v1057h201l23 -174v-883h-224z" />
<glyph unicode="&#xfb02;" horiz-adv-x="1153" d="M127 0v1024q0 197 91 313.5t282 116.5q49 0 86 -6t66.5 -17.5t53 -26.5t46.5 -32l-115 -139q-20 18 -49 32.5t-70 14.5q-45 0 -76.5 -17.5t-51 -44t-28 -60.5t-8.5 -66v-35h277v-176h-277v-881h-227zM791 174v1280h200l23 -174v-1280h-203z" />
<glyph unicode="&#xfb03;" horiz-adv-x="1808" d="M127 0v1024q0 197 91 313.5t282 116.5q49 0 86 -6t66.5 -17.5t53 -26.5t46.5 -32l-115 -139q-20 18 -49 32.5t-70 14.5q-45 0 -76.5 -17.5t-51 -44t-28 -60.5t-8.5 -66v-35h277v-176h-277v-881h-227zM784 0v1024q0 197 91.5 313.5t281.5 116.5q49 0 86 -6t66.5 -17.5 t53 -26.5t46.5 -32l-115 -139q-20 18 -48.5 32.5t-69.5 14.5q-45 0 -77 -17.5t-51.5 -44t-27.5 -60.5t-8 -66v-35h276v-176h-276v-881h-228zM1427 1270q0 53 35 89t94 36t92 -36t33 -89t-32.5 -89t-92.5 -36q-59 0 -94 36t-35 89zM1444 0v1057h201l22 -174v-883h-223z" />
<glyph unicode="&#xfb04;" horiz-adv-x="1806" d="M121 0v1024q0 197 91 313.5t282 116.5q49 0 85.5 -6t66.5 -17.5t53.5 -26.5t45.5 -32l-114 -139q-20 18 -49 32.5t-70 14.5q-45 0 -77 -17.5t-51 -44t-27.5 -60.5t-8.5 -66v-35h277v-176h-277v-881h-227zM778 0v1024q0 197 91.5 313.5t281.5 116.5q49 0 86 -6t66.5 -17.5 t53 -26.5t46.5 -32l-115 -139q-20 18 -49 32.5t-70 14.5q-45 0 -76.5 -17.5t-51 -44t-27.5 -60.5t-8 -66v-35h276v-176h-276v-881h-228zM1442 174v1280h200l23 -174v-1280h-203z" />
<glyph horiz-adv-x="0" />
<glyph horiz-adv-x="0" />
<glyph unicode="&#xd;" horiz-adv-x="0" />
<glyph unicode=" "  horiz-adv-x="389" />
<glyph unicode="&#x09;" horiz-adv-x="389" />
<glyph unicode="&#xa0;" horiz-adv-x="389" />
<glyph unicode="!" horiz-adv-x="686" d="M209 119q0 57 37 92t96 35t96 -35t37 -92t-37 -93t-96 -36t-96 36t-37 93zM229 543v819h230v-995h-209z" />
<glyph unicode="&#x22;" horiz-adv-x="792" d="M111 1399h221l-29 -488h-164zM459 1399h219l-29 -488h-162z" />
<glyph unicode="#" horiz-adv-x="1353" d="M74 367v165h215l104 318h-155v166h208l115 346h191l-113 -346h289l112 346h193l-113 -346h158v-166h-211l-104 -318h151v-165h-205l-118 -367h-193l119 367h-289l-119 -367h-194l118 367h-159zM481 532h289l104 318h-288z" />
<glyph unicode="$" horiz-adv-x="970" d="M102 989v64q0 53 16.5 103t50.5 92t85 72t119 42v133h225v-129q129 -23 198.5 -104.5t69.5 -235.5v-70h-223v78q0 29 -7 57.5t-25.5 51t-49.5 37t-76 14.5q-78 0 -115.5 -45t-37.5 -102v-39q0 -53 41 -96.5t143 -100.5q80 -43 144.5 -84t110.5 -89t71.5 -106.5 t25.5 -134.5v-86q0 -117 -72.5 -200.5t-197.5 -110.5v-133h-225v133q-61 12 -110.5 36.5t-84.5 65.5t-54.5 100.5t-19.5 141.5v62h228v-76q0 -31 7 -60.5t24.5 -52t47 -36t74.5 -13.5q80 0 119 47t39 102v56q0 82 -61.5 135t-169.5 108q-70 39 -127.5 77t-97.5 82 t-62.5 96.5t-22.5 117.5z" />
<glyph unicode="%" horiz-adv-x="1769" d="M84 823v277q0 57 16.5 108.5t52 90t89 61t127.5 22.5q76 0 129 -22.5t86.5 -61t50 -90t16.5 -108.5v-277q0 -59 -16.5 -111.5t-51 -90t-88 -59t-126.5 -21.5q-74 0 -127.5 21.5t-89 59t-52 90t-16.5 111.5zM276 815q0 -45 18.5 -82t72.5 -37q53 0 72.5 37t19.5 82v291 q0 47 -19.5 84t-72.5 37t-72 -37t-19 -84v-291zM436 0l711 1362h186l-711 -1362h-186zM1118 270v277q0 57 16.5 108.5t52 90t89 61t127.5 22.5q76 0 129 -22.5t86.5 -61t50 -90t16.5 -108.5v-277q0 -59 -16.5 -111.5t-51 -90t-88 -59t-126.5 -21.5q-74 0 -127.5 21.5t-89 59 t-52 90t-16.5 111.5zM1310 262q0 -45 18.5 -82t72.5 -37q53 0 72.5 37t19.5 82v291q0 47 -19.5 84t-72.5 37t-72 -37t-19 -84v-291z" />
<glyph unicode="&#x26;" horiz-adv-x="1085" d="M119 305v64q0 104 46 175.5t132 133.5q-70 45 -124 123t-54 196v43q0 70 25.5 132.5t75.5 109.5t126 73.5t174 26.5t170 -26.5t117 -69.5t66.5 -98t21.5 -113v-47q0 -57 -13.5 -105.5t-44 -91.5t-81.5 -83.5t-125 -85.5q-57 -35 -109.5 -67t-92.5 -65.5t-63.5 -72.5 t-23.5 -88v-45q0 -61 37 -107.5t117 -46.5q84 0 130 55.5t46 132.5v107h223v-152q0 -154 52 -241.5t186 -87.5v-193q-98 0 -171 20.5t-123.5 59.5t-79 93t-40.5 120h-10q-39 -41 -101.5 -72.5t-161.5 -31.5q-160 0 -243.5 77.5t-83.5 247.5zM342 989q0 -76 39 -125t90 -78 q98 49 149.5 102.5t51.5 125.5v26q0 57 -36 104.5t-124 47.5q-49 0 -81 -14.5t-52.5 -38t-28.5 -52t-8 -59.5v-39z" />
<glyph unicode="'" horiz-adv-x="444" d="M111 1399h221l-29 -488h-164z" />
<glyph unicode="(" horiz-adv-x="759" d="M178 225v924q0 104 25.5 191t83 148.5t146.5 96.5t216 35h45v-193h-45q-127 0 -187.5 -77.5t-60.5 -223.5v-870q0 -147 60.5 -223t187.5 -76h45v-193h-45q-127 0 -216 33t-146.5 93.5t-83 145.5t-25.5 189z" />
<glyph unicode=")" horiz-adv-x="759" d="M61 -43h45q127 0 187.5 76t60.5 223v870q0 145 -60.5 223t-187.5 78h-45v193h45q127 0 217.5 -35t146.5 -96.5t83 -148.5t27 -191v-924q0 -104 -27 -189t-83 -145.5t-146.5 -93.5t-217.5 -33h-45v193z" />
<glyph unicode="*" horiz-adv-x="675" d="M76 1178l162 67v8l-162 66l69 119l131 -111l13 10l-23 172h140l-29 -170l12 -10l139 109l70 -119l-162 -70v-16l162 -55l-70 -121l-141 114l-12 -10l31 -176h-140l31 176l-8 6l-144 -110z" />
<glyph unicode="+" horiz-adv-x="856" d="M160 522v189h174v174h188v-174h174v-189h-174v-174h-188v174h-174z" />
<glyph unicode="," horiz-adv-x="432" d="M59 -233l76 452h221l-159 -452h-138z" />
<glyph unicode="-" horiz-adv-x="694" d="M121 557v188h452v-188h-452z" />
<glyph unicode="." horiz-adv-x="430" d="M84 117q0 55 36 91t95 36t96 -36t37 -91q0 -57 -37 -93t-96 -36t-95 36t-36 93z" />
<glyph unicode="/" horiz-adv-x="847" d="M14 -182l619 1636h201l-617 -1636h-203z" />
<glyph unicode="0" d="M111 420v522q0 211 95 325.5t292 114.5t293 -114.5t96 -325.5v-522q0 -211 -97.5 -325.5t-293.5 -114.5q-195 0 -290 114.5t-95 325.5zM334 406q0 -45 6 -87.5t24.5 -75t50 -52t81.5 -19.5q49 0 81.5 19.5t51 52t27 74.5t8.5 88v550q0 45 -7.5 87t-26 75t-51 53.5 t-81.5 20.5t-81 -20.5t-50.5 -53.5t-25.5 -75t-7 -87v-550z" />
<glyph unicode="1" horiz-adv-x="806" d="M35 1079l358 283h273v-1362h-226v1139l-274 -211z" />
<glyph unicode="2" horiz-adv-x="974" d="M94 0v211l271 307q80 90 135 157.5t89 121t49 97.5t15 89v31q0 72 -35.5 126t-125.5 54q-49 0 -82 -15.5t-53.5 -42t-29 -59.5t-8.5 -67v-43h-223v43q0 82 25.5 150.5t77 117.5t126 76.5t171.5 27.5q100 0 172.5 -26.5t119 -74.5t68 -113.5t21.5 -143.5v-39 q0 -117 -63.5 -221.5t-174.5 -228.5l-299 -347h537v-188h-783z" />
<glyph unicode="3" horiz-adv-x="970" d="M96 338v41h221v-37q0 -27 6.5 -56.5t24 -55t47 -43t78.5 -17.5t81 16.5t50.5 41t26.5 55t8 59.5v98q0 86 -49 136.5t-172 50.5h-82v188h82q117 0 169 47t52 133v41q0 27 -8 54.5t-26.5 50t-48.5 37t-73 14.5q-49 0 -80.5 -16.5t-50 -41t-27 -54t-8.5 -56.5v-39h-221v27 q0 82 24.5 149.5t73 116.5t121 76.5t170.5 27.5q94 0 166 -24.5t118 -65.5t69.5 -96t23.5 -119v-69q0 -109 -53 -178.5t-152 -98.5v-10q98 -31 151.5 -99.5t53.5 -187.5v-102q0 -82 -28.5 -146.5t-80 -109.5t-123 -69.5t-155.5 -24.5q-193 0 -286 95t-93 261z" />
<glyph unicode="4" horiz-adv-x="950" d="M63 291v225l463 846h234l-481 -881h335v228h224v-709h-224v291h-551z" />
<glyph unicode="5" horiz-adv-x="1026" d="M123 627v735h758v-195h-537v-305q35 39 89 69t145 30q160 0 242.5 -93.5t82.5 -300.5v-196q0 -82 -24.5 -154t-74.5 -124t-125 -82.5t-173 -30.5t-170 29.5t-119 79.5t-69.5 116.5t-22.5 140.5v31h223v-27q0 -29 7 -59.5t25.5 -58t50.5 -45t79 -17.5q49 0 81 19.5 t51.5 49t27.5 64.5t8 68v219q0 33 -8 65.5t-26.5 58t-49.5 41t-76 15.5q-39 0 -66.5 -11t-47 -31.5t-32 -46.5t-20.5 -54h-229z" />
<glyph unicode="6" horiz-adv-x="1003" d="M111 381v588q0 190 100 301.5t301 111.5q190 0 282.5 -100t92.5 -274v-31h-223v37q0 29 -7.5 60.5t-26 57t-49 43t-77.5 17.5q-49 0 -82 -18.5t-52.5 -48t-27.5 -66.5t-8 -72v-221q39 41 98.5 68.5t138.5 27.5q319 0 320 -348v-135q0 -180 -95.5 -289.5t-293.5 -109.5 q-199 0 -295 108.5t-96 292.5zM334 356q0 -35 8 -67.5t27.5 -59t51.5 -43t79 -16.5q49 0 80.5 15.5t50 42t27 60.5t8.5 68v144q0 31 -7.5 62.5t-26 57t-49 42t-77.5 16.5t-80 -15.5t-53.5 -41t-29.5 -57.5t-9 -62v-146z" />
<glyph unicode="7" horiz-adv-x="892" d="M61 1167v195h770v-223l-458 -1139h-234l488 1167h-566z" />
<glyph unicode="8" horiz-adv-x="1001" d="M111 315v23q0 61 15 110.5t45 91.5t73 77.5t98 72.5q-49 33 -92 65.5t-74 69.5t-48 81t-17 98v20q0 68 22.5 131.5t70.5 114.5t120.5 81.5t173.5 30.5q104 0 178 -28.5t121 -74.5t68.5 -102.5t21.5 -113.5v-23q0 -94 -60.5 -171.5t-164.5 -153.5q57 -41 100 -79t70.5 -78 t41 -85t13.5 -102v-31q0 -74 -25.5 -139.5t-76 -114.5t-123 -77.5t-164.5 -28.5t-165 25.5t-122 70.5t-74.5 106.5t-25.5 132.5zM334 348q0 -27 7 -58.5t25.5 -58t51.5 -44t82 -17.5q45 0 76.5 17.5t51 43t28 55t8.5 56.5v29q0 72 -37 120t-131 109q-80 -57 -121 -106.5 t-41 -118.5v-27zM334 1010q0 -66 46 -110t132 -97q72 49 112 96t40 113v16q0 27 -8.5 56.5t-29 54t-52 41t-76.5 16.5q-43 0 -74 -15.5t-51.5 -38t-29.5 -51t-9 -55.5v-26z" />
<glyph unicode="9" horiz-adv-x="1001" d="M111 846v137q0 180 97 289.5t294 109.5q199 0 294 -111.5t95 -301.5v-580q0 -92 -24.5 -167t-74 -129t-125 -83.5t-175.5 -29.5q-190 0 -284.5 99t-94.5 269v37h227v-39q0 -29 6 -59.5t24.5 -57t50.5 -43t81 -16.5q47 0 78.5 18.5t50 48t27 65.5t8.5 71v237 q-37 -51 -99.5 -80.5t-150.5 -29.5q-143 0 -224 84t-81 262zM338 862q0 -70 38 -123t126 -53q43 0 73.5 15.5t50 40t30 55t10.5 63.5v148q0 74 -39 129t-125 55q-88 0 -126 -53.5t-38 -128.5v-148z" />
<glyph unicode=":" horiz-adv-x="430" d="M84 117q0 55 36 91t95 36t96 -36t37 -91q0 -57 -37 -93t-96 -36t-95 36t-36 93zM84 905q0 55 36 91t95 36t96 -35.5t37 -91.5q0 -57 -37 -93t-96 -36t-95 36t-36 93z" />
<glyph unicode=";" horiz-adv-x="454" d="M51 -233l76 452h221l-160 -452h-137zM106 905q0 55 36 91t96 36q59 0 96 -35.5t37 -91.5q0 -57 -37 -93t-96 -36t-95.5 36t-36.5 93z" />
<glyph unicode="&#x3c;" horiz-adv-x="856" d="M147 553v172l537 246v-205l-324 -127l324 -127v-205z" />
<glyph unicode="=" horiz-adv-x="856" d="M160 379v188h536v-188h-536zM160 670v188h536v-188h-536z" />
<glyph unicode="&#x3e;" horiz-adv-x="856" d="M172 307v205l324 127l-324 127v205l537 -246v-172z" />
<glyph unicode="?" horiz-adv-x="985" d="M125 969v94q0 68 23.5 126t70.5 101t119 67.5t168 24.5q178 0 266 -75.5t88 -198.5v-86q0 -43 -7 -79t-26.5 -70.5t-53.5 -70.5t-87 -77q-45 -35 -71.5 -66.5t-41 -65.5t-18.5 -75t-4 -96v-55h-227v77q0 66 5 116t23.5 93t52 83t91.5 85q43 35 69.5 61.5t41 51t19.5 47.5 t5 51v51q0 49 -33 79t-98 30q-70 0 -109 -39t-39 -104v-80h-227zM309 119q0 57 36 92t95 35q61 0 97 -35t36 -92t-35.5 -93t-97.5 -36q-59 0 -95 36t-36 93z" />
<glyph unicode="@" horiz-adv-x="1583" d="M111 303v365q0 115 34.5 227.5t115.5 200.5t213 142t327 54q193 0 322.5 -55t207.5 -144t111 -200t33 -223v-264q0 -152 -74 -238t-221 -86q-74 0 -127.5 25.5t-94.5 82.5q-37 -47 -98 -77.5t-141 -30.5q-129 0 -196.5 58.5t-67.5 189.5q0 72 19.5 121t53 78.5t78.5 43 t96 13.5q72 0 117 -14.5t82 -36.5v98q0 66 -24.5 109.5t-92.5 43.5q-61 0 -88.5 -31.5t-27.5 -84.5v-17h-197v17q0 49 15.5 99t51 92t96 68.5t152.5 26.5q147 0 231.5 -77.5t84.5 -231.5v-289q0 -121 94 -120q53 0 73.5 37.5t20.5 99.5v295q0 86 -24.5 170t-82 148.5 t-152.5 104.5t-238 40t-239.5 -40t-154 -106.5t-82 -150.5t-24.5 -170v-351q0 -94 25.5 -170.5t84 -130t149.5 -83t224 -29.5h41v-164h-45q-178 0 -304 38t-205 110.5t-115.5 177t-36.5 239.5zM666 336q0 -49 22.5 -78t81.5 -29q49 0 83 23.5t48 60.5v103q-25 10 -54.5 19 t-60.5 9q-66 0 -93 -26.5t-27 -81.5z" />
<glyph unicode="A" horiz-adv-x="1036" d="M39 0l352 1362h256l348 -1362h-231l-66 270h-370l-68 -270h-221zM365 463h294l-145 600h-6z" />
<glyph unicode="B" horiz-adv-x="1019" d="M141 0v1362h369q176 0 273.5 -79t97.5 -251v-45q0 -88 -40 -146.5t-93 -92.5q88 -41 126.5 -117t38.5 -162v-107q0 -176 -98 -269t-280 -93h-394zM365 188h170q84 0 118.5 51.5t34.5 118.5v117q0 29 -8 57.5t-24.5 51t-44 37t-66.5 14.5h-180v-447zM365 819h133 q78 0 119.5 32t41.5 110v77q0 72 -40.5 100.5t-122.5 28.5h-131v-348z" />
<glyph unicode="C" horiz-adv-x="966" d="M113 420v522q0 211 97 325.5t298 114.5q188 0 284.5 -113.5t96.5 -312.5v-16h-223v41q0 39 -8.5 77t-27 67.5t-50 48t-76.5 18.5q-49 0 -81 -19.5t-51.5 -52.5t-27.5 -76t-8 -88v-550q0 -109 37 -171.5t129 -62.5q49 0 80.5 17.5t50 47t26 67.5t7.5 79v39h223v-19 q0 -193 -97.5 -308t-289.5 -115q-199 0 -294 115.5t-95 324.5z" />
<glyph unicode="D" horiz-adv-x="1046" d="M141 0v1362h400q199 0 297 -105.5t98 -312.5v-526q0 -207 -98.5 -312.5t-296.5 -105.5h-400zM365 190h174q98 0 135 62.5t37 155.5v548q0 92 -37 150.5t-135 58.5h-174v-975z" />
<glyph unicode="E" horiz-adv-x="888" d="M141 0v1362h678v-197h-454v-342h376v-190h-376v-443h454v-190h-678z" />
<glyph unicode="F" horiz-adv-x="878" d="M141 0v1362h678v-197h-454v-342h374v-190h-374v-633h-224z" />
<glyph unicode="G" horiz-adv-x="1005" d="M111 420v522q0 211 100 325.5t293 114.5q197 0 293 -110.5t96 -290.5v-25h-221v39q0 33 -8.5 69t-28 63.5t-50 46t-75.5 18.5q-49 0 -83 -19.5t-54.5 -51t-29.5 -74.5t-9 -91v-536q0 -111 36 -179.5t132 -68.5t133 68.5t37 171.5v184h-160v188h385v-364 q0 -211 -101.5 -325.5t-291.5 -114.5q-193 0 -293 114.5t-100 325.5z" />
<glyph unicode="H" horiz-adv-x="1105" d="M141 0v1362h226v-551h372v551h224v-1362h-224v621h-372v-621h-226z" />
<glyph unicode="I" horiz-adv-x="507" d="M141 0v1362h226v-1362h-226z" />
<glyph unicode="J" horiz-adv-x="645" d="M61 -25v193q68 2 111 23.5t68.5 55.5t36 78t10.5 91v946h223v-932q0 -211 -113.5 -332t-335.5 -123z" />
<glyph unicode="K" horiz-adv-x="1044" d="M141 0v1362h226v-610l393 610h237l-379 -567l398 -795h-250l-301 612l-98 -139v-473h-226z" />
<glyph unicode="L" horiz-adv-x="892" d="M141 0v1362h226v-1172h475v-190h-701z" />
<glyph unicode="M" horiz-adv-x="1374" d="M141 0v1362h250l299 -873h10l299 873h234v-1362h-195v956h-8l-278 -806h-119l-289 806h-8v-956h-195z" />
<glyph unicode="N" horiz-adv-x="1118" d="M141 0v1362h236l401 -993h10v993h189v-1362h-236l-403 973h-8v-973h-189z" />
<glyph unicode="O" d="M111 420v522q0 211 95 325.5t292 114.5t293 -114.5t96 -325.5v-522q0 -211 -97.5 -325.5t-293.5 -114.5q-195 0 -290 114.5t-95 325.5zM334 406q0 -45 7 -87.5t24.5 -75t49 -52t81.5 -19.5q49 0 81.5 19.5t51 52t27 74.5t8.5 88v550q0 45 -7.5 87t-27 75t-52 53.5 t-81.5 20.5t-80 -20.5t-49.5 -53.5t-25.5 -75t-7 -87v-550z" />
<glyph unicode="P" horiz-adv-x="1001" d="M141 0v1362h385q186 0 281.5 -94t95.5 -275v-108q0 -180 -98 -275.5t-281 -95.5h-157v-514h-226zM367 707h141q88 0 129 46t41 124v129q0 76 -41 117.5t-129 41.5h-141v-458z" />
<glyph unicode="Q" d="M111 420v522q0 211 95 325.5t292 114.5t293 -114.5t96 -325.5v-522q0 -176 -68.5 -284.5t-204.5 -141.5q0 -25 8.5 -45.5t31 -34.5t63.5 -21.5t108 -7.5h62v-188h-103q-213 0 -301 72.5t-90 220.5q-143 29 -212.5 139.5t-69.5 290.5zM334 406q0 -45 7 -87.5t24.5 -75 t49 -52t81.5 -19.5q49 0 81.5 19.5t51 52t27 74.5t8.5 88v550q0 45 -7.5 87t-27 75t-52 53.5t-81.5 20.5t-80 -20.5t-49.5 -53.5t-25.5 -75t-7 -87v-550z" />
<glyph unicode="R" horiz-adv-x="1036" d="M141 0v1362h398q188 0 281 -89t93 -263v-54q0 -106 -48 -195t-148 -128l274 -633h-248l-227 584h-149v-584h-226zM367 772h161q82 0 121 43t39 121v80q0 68 -38 108.5t-111 40.5h-172v-393z" />
<glyph unicode="S" horiz-adv-x="927" d="M86 360v52h227v-66q0 -31 5.5 -61.5t21.5 -56t46 -42t79 -16.5q84 0 118.5 45t34.5 107v47q0 84 -65.5 144t-179.5 122q-68 37 -120 71.5t-89 74.5t-55.5 88.5t-18.5 113.5v64q0 61 20.5 120.5t65.5 107.5t117 77.5t172 29.5q184 0 280.5 -95t96.5 -288v-49h-224v64 q0 27 -6 58.5t-23.5 58t-49 44t-80.5 17.5q-78 0 -112 -45t-34 -103v-34q0 -53 39 -97.5t146 -97.5q76 -41 139 -83t109.5 -91t71 -108.5t24.5 -133.5v-80q0 -61 -21.5 -122.5t-67.5 -109.5t-117 -77.5t-171 -29.5t-172 27.5t-118 78.5t-67.5 120.5t-21.5 153.5z" />
<glyph unicode="T" horiz-adv-x="931" d="M43 1165v197h844v-197h-314v-1165h-223v1165h-307z" />
<glyph unicode="U" horiz-adv-x="1056" d="M137 420v942h223v-956q0 -49 9.5 -91.5t30 -74t52 -50t76.5 -18.5q94 0 131 66.5t37 167.5v956h226v-942q0 -211 -97.5 -325.5t-296.5 -114.5t-295 114.5t-96 325.5z" />
<glyph unicode="V" horiz-adv-x="983" d="M45 1362h225l215 -1061h11l217 1061h225l-307 -1362h-279z" />
<glyph unicode="W" horiz-adv-x="1445" d="M47 1362h225l138 -981h8l221 981h154l225 -981h10l148 981h223l-248 -1362h-219l-217 924h-8l-215 -924h-207z" />
<glyph unicode="X" d="M43 0l315 692l-315 670h233l228 -512h8l215 512h223l-323 -676l327 -686h-235l-232 510h-8l-211 -510h-225z" />
<glyph unicode="Y" horiz-adv-x="1009" d="M41 1362h231l226 -676h10l229 676h232l-353 -956v-406h-225v408z" />
<glyph unicode="Z" horiz-adv-x="874" d="M63 0v225l529 940h-514v197h733v-223l-530 -949h516v-190h-734z" />
<glyph unicode="[" horiz-adv-x="708" d="M168 -236v1856h463v-193h-240v-1470h240v-193h-463z" />
<glyph unicode="\" horiz-adv-x="845" d="M14 1454h203l614 -1636h-200z" />
<glyph unicode="]" horiz-adv-x="706" d="M76 -43h237v1470h-237v193h461v-1856h-461v193z" />
<glyph unicode="^" horiz-adv-x="856" d="M119 430l219 504h178l221 -504h-217l-92 258l-94 -258h-215z" />
<glyph unicode="_" horiz-adv-x="972" d="M76 -29h823v-188h-823v188z" />
<glyph unicode="`" horiz-adv-x="1058" d="M342 1415h227l125 -285h-176z" />
<glyph unicode="a" horiz-adv-x="970" d="M102 281v57q0 61 16.5 115.5t53.5 94.5t94.5 63.5t139.5 23.5q55 0 101 -10.5t89 -28.5v139q0 66 -26.5 115t-108.5 49q-74 0 -103.5 -40t-29.5 -105v-27h-203v33q0 63 18.5 121.5t59.5 101.5t105.5 68.5t156.5 25.5q98 0 166.5 -24.5t109.5 -71.5t59.5 -115.5 t18.5 -154.5v-463q0 -76 90 -78v-190q-121 0 -183 27.5t-91 101.5q-41 -59 -98.5 -94t-149.5 -35q-137 0 -211 75.5t-74 225.5zM328 295q0 -68 25.5 -105.5t103.5 -37.5q47 0 81.5 18t57.5 45v244q-31 10 -56.5 16t-66.5 6q-82 0 -113.5 -40t-31.5 -107v-39z" />
<glyph unicode="b" horiz-adv-x="983" d="M141 0v1454h201l23 -174v-287q41 37 92 60.5t123 23.5q143 0 216.5 -90t73.5 -264v-350q0 -88 -20.5 -161t-61 -124t-101 -79.5t-140.5 -28.5t-134.5 26.5t-93.5 67.5l-18 -74h-160zM365 203q20 -18 50.5 -33.5t76.5 -15.5q86 0 120.5 55t34.5 147v367q0 82 -31.5 130 t-109.5 48q-47 0 -81 -17.5t-60 -45.5v-635z" />
<glyph unicode="c" horiz-adv-x="925" d="M109 387v229q0 104 19 189.5t62 146t113 93t170 32.5q92 0 158.5 -27.5t109.5 -77.5t63.5 -120t20.5 -154v-47h-213v60q0 80 -30.5 134t-106.5 54q-86 0 -113.5 -67.5t-27.5 -188.5v-229q0 -123 26.5 -189.5t114.5 -66.5q80 0 108.5 55t28.5 133v60h213v-48 q0 -84 -20.5 -152.5t-63.5 -119.5t-111.5 -78.5t-164.5 -27.5q-180 0 -268 109.5t-88 297.5z" />
<glyph unicode="d" horiz-adv-x="987" d="M113 387v268q0 66 11 139.5t44 137t94.5 104.5t163.5 41q66 0 112 -17.5t80 -45.5v440h201l23 -174v-1022q0 -45 20.5 -66.5t69.5 -21.5v-190q-63 0 -108.5 6t-77 21.5t-53 40t-36.5 58.5q-35 -55 -92 -90.5t-151 -35.5q-88 0 -146.5 33.5t-92.5 90t-48 130t-14 153.5z M336 438q0 -137 28.5 -208.5t118.5 -71.5q51 0 82 17.5t53 45.5v631q-23 20 -51 34.5t-71 14.5q-96 0 -128 -73.5t-32 -200.5v-189z" />
<glyph unicode="e" horiz-adv-x="942" d="M109 424v207q0 100 20.5 183t63.5 141.5t111.5 90t166.5 31.5q106 0 176 -32.5t111 -93t58.5 -143.5t17.5 -181v-162h-500v-100q0 -90 28.5 -148.5t114.5 -58.5q74 0 104.5 50t30.5 124v18h222q0 -76 -19.5 -143.5t-62.5 -117.5t-113 -79.5t-168 -29.5t-168 31.5t-113 90 t-62 140.5t-19 182zM334 629h276v47q0 47 -6 88t-21.5 70.5t-42 47t-69.5 17.5q-41 0 -66.5 -15.5t-42 -42t-22.5 -61.5t-6 -73v-78z" />
<glyph unicode="f" horiz-adv-x="710" d="M141 0v1024q0 197 91.5 313.5t281.5 116.5q49 0 86 -6t66.5 -17.5t53 -26.5t46.5 -32l-115 -139q-20 18 -49 32.5t-70 14.5q-45 0 -76.5 -17.5t-51 -44t-27.5 -60.5t-8 -66v-35h276v-176h-276v-881h-228z" />
<glyph unicode="g" horiz-adv-x="978" d="M113 375v291q0 197 86 304t245 107q86 0 137.5 -28.5t86.5 -69.5l18 78h156v-1045q0 -94 -17.5 -175t-59.5 -140t-113.5 -93t-182.5 -34q-174 0 -261 77t-87 224v20h221v-14q0 -59 29.5 -95t99.5 -36q84 0 115.5 51t31.5 129v162q-35 -51 -86 -79.5t-137 -28.5 q-78 0 -131 28.5t-87 79.5t-49 124t-15 163zM336 432q0 -131 27.5 -203.5t117.5 -72.5q49 0 82 20.5t55 46.5v625q-23 23 -51 38t-73 15q-90 0 -124 -65.5t-34 -176.5v-227z" />
<glyph unicode="h" horiz-adv-x="1011" d="M141 0v1454h201l23 -174v-283q33 29 87 54.5t132 25.5q86 0 142 -27.5t89 -84t45 -141.5t12 -197v-627h-204l-19 174v457q0 51 -4 100t-17.5 86t-41 59.5t-76.5 22.5q-53 0 -88 -18.5t-57 -40.5v-840h-224z" />
<glyph unicode="i" horiz-adv-x="505" d="M125 1270q0 53 35 89t94 36t92 -36t33 -89t-33 -89t-92 -36t-94 36t-35 89zM141 0v1057h201l23 -174v-883h-224z" />
<glyph unicode="j" horiz-adv-x="505" d="M-27 -240q61 0 95 22.5t50.5 63.5t19.5 98.5t3 129.5v983h201l23 -174v-901q0 -117 -26 -197t-75 -127t-121.5 -67.5t-169.5 -20.5v190zM125 1270q0 53 35 89t94 36q57 0 90 -36t33 -89t-33 -89t-90 -36q-59 0 -94 36t-35 89z" />
<glyph unicode="k" horiz-adv-x="960" d="M141 0v1454h201l23 -174v-647l319 424h244l-305 -379l305 -678h-236l-223 512l-104 -121v-391h-224z" />
<glyph unicode="l" horiz-adv-x="505" d="M141 174v1280h201l23 -174v-1280h-203z" />
<glyph unicode="m" horiz-adv-x="1511" d="M141 0v1057h160l18 -103q37 49 100.5 86t151.5 37q94 0 146.5 -39t87.5 -96q35 49 104.5 92t173.5 43q145 0 217 -91t72 -257v-729h-205l-18 174v541q0 37 -5 70.5t-18.5 59t-39 40t-66.5 14.5q-55 0 -91 -22.5t-61 -45.5v-831h-223v723q0 78 -25.5 127t-103.5 49 q-55 0 -94 -23.5t-57 -46.5v-829h-224z" />
<glyph unicode="n" horiz-adv-x="1013" d="M141 0v1057h162l19 -90q39 41 100 75.5t158 34.5q295 0 294 -377v-700h-204l-21 174v531q0 88 -28.5 141t-106.5 53q-53 0 -90 -19.5t-59 -41.5v-838h-224z" />
<glyph unicode="o" horiz-adv-x="952" d="M113 387v283q0 92 21.5 166.5t65.5 128t111.5 83t161.5 29.5t164 -29.5t115 -83t66.5 -128t21.5 -166.5v-283q0 -186 -89 -296.5t-278 -110.5q-188 0 -274 110.5t-86 296.5zM336 373q0 -100 30.5 -157.5t108.5 -57.5t108.5 57t30.5 158v311q0 98 -30.5 156.5t-108.5 58.5 t-108.5 -58.5t-30.5 -158.5v-309z" />
<glyph unicode="p" horiz-adv-x="980" d="M139 -430v1487h162l14 -88q45 47 103.5 77.5t140.5 30.5q309 0 309 -397v-287q0 -188 -74.5 -300.5t-242.5 -112.5q-63 0 -103 15t-86 40v-291l-22 -174h-201zM362 190q23 -16 52.5 -26t70.5 -10q94 0 127 60t33 155v321q0 94 -31.5 152.5t-115.5 58.5q-47 0 -80 -18.5 t-56 -42.5v-650z" />
<glyph unicode="q" horiz-adv-x="980" d="M113 444v213q0 197 85 308.5t246 111.5q86 0 135.5 -28.5t86.5 -69.5l20 78h156v-1487h-205l-19 174v305q-35 -27 -82 -48t-118 -21q-170 0 -237.5 113.5t-67.5 350.5zM336 436q0 -133 27.5 -206.5t121.5 -73.5q47 0 78 16t55 45v627q-23 25 -52 41t-77 16 q-90 0 -121.5 -75.5t-31.5 -207.5v-182z" />
<glyph unicode="r" horiz-adv-x="708" d="M141 0v1057h164l17 -96q47 53 108.5 84.5t138.5 31.5q41 0 69 -6t54 -18l-53 -191q-23 10 -43.5 14.5t-48.5 4.5q-55 0 -99.5 -20.5t-82.5 -53.5v-807h-224z" />
<glyph unicode="s" horiz-adv-x="858" d="M86 313v15h219v-17q0 -70 25.5 -113.5t103.5 -43.5q59 0 91 32.5t32 87.5q0 29 -7 53.5t-29.5 47t-62.5 46t-108 52.5q-141 57 -202.5 130t-61.5 188q0 49 19.5 100t60.5 93t105.5 67.5t154.5 25.5q174 0 255 -86t81 -235v-19h-217v29q0 53 -23.5 95t-97.5 42 q-63 0 -89 -30.5t-26 -73.5q0 -29 9.5 -51.5t34 -44t64.5 -43t101 -46.5q150 -59 204 -139t54 -180q0 -57 -20.5 -113.5t-61.5 -101.5t-106.5 -72.5t-153.5 -27.5q-182 0 -265 88t-83 245z" />
<glyph unicode="t" horiz-adv-x="704" d="M137 369v893h201l22 -166v-39h271v-176h-271v-521q0 -39 6.5 -73.5t24 -60t47 -41t76.5 -15.5q33 0 60.5 7t50.5 18l49 -175q-41 -20 -85 -30t-102 -10q-186 0 -268 95t-82 294z" />
<glyph unicode="u" horiz-adv-x="1011" d="M127 338v719h225v-711q0 -88 28 -138t109 -50q49 0 84 19.5t58 45.5v834h223v-803q0 -35 17.5 -59.5t72.5 -24.5v-190q-61 0 -106 6t-76 20t-52.5 39t-37.5 61q-43 -59 -104.5 -92.5t-153.5 -33.5q-152 0 -219.5 87t-67.5 271z" />
<glyph unicode="v" horiz-adv-x="884" d="M43 1057h225l170 -821h8l170 821h226l-281 -1057h-239z" />
<glyph unicode="w" horiz-adv-x="1400" d="M47 1057h227l138 -709h8l190 709h178l191 -709h10l139 709h224l-236 -1057h-213l-198 721h-15l-196 -721h-211z" />
<glyph unicode="x" horiz-adv-x="874" d="M37 1057h233l166 -350h13l159 350h221l-274 -529l279 -528h-236l-178 352h-8l-148 -352h-221l260 555z" />
<glyph unicode="y" horiz-adv-x="870" d="M41 -240q45 0 89 8.5t81 27t64.5 50t39.5 78.5l19 66l-285 1067h225l158 -766h8l160 766h225l-323 -1157q-20 -74 -56 -134.5t-91.5 -104.5t-132.5 -67.5t-181 -23.5v190z" />
<glyph unicode="z" horiz-adv-x="770" d="M76 0v209l403 659h-387v189h602v-207l-403 -662h387v-188h-602z" />
<glyph unicode="{" horiz-adv-x="845" d="M82 592v188h35q88 0 120.5 31t32.5 96v310q0 213 118 308t345 95h49v-193h-49q-129 0 -183 -62t-54 -200v-286q0 -82 -39 -132.5t-111 -50.5h-31v-20h31q72 0 111 -49t39 -131v-295q0 -70 13 -116t42 -74.5t74 -41t108 -12.5h49v-193h-49q-227 0 -345 91.5t-118 294.5 v317q0 66 -32.5 95.5t-120.5 29.5h-35z" />
<glyph unicode="|" horiz-adv-x="632" d="M203 -236v1856h227v-1856h-227z" />
<glyph unicode="}" horiz-adv-x="845" d="M61 -43h52q127 0 182 52t55 192v295q0 82 39 131t111 49h30v20h-30q-72 0 -111 50.5t-39 132.5v286q0 137 -55 199.5t-182 62.5h-52v193h52q225 0 342.5 -95t117.5 -308v-310q0 -66 33 -96.5t121 -30.5h37v-188h-37q-88 0 -121 -30t-33 -95v-317q0 -203 -116.5 -294.5 t-343.5 -91.5h-52v193z" />
<glyph unicode="~" horiz-adv-x="854" d="M125 502q0 76 14.5 130t39 89t56 51t64.5 16q31 0 55.5 -9t53.5 -25q20 -12 48.5 -32t55.5 -20q23 0 34 19.5t11 66.5h172q0 -152 -43 -219t-121 -67q-35 0 -62.5 8t-56.5 25q-27 16 -51 32.5t-49 16.5q-49 0 -49 -82h-172z" />
<glyph unicode="&#xa1;" horiz-adv-x="686" d="M209 936q0 57 37 93t96 36t96 -36t37 -93t-37 -93t-96 -36t-96 36t-37 93zM225 -307v995h207l23 -176v-819h-230z" />
<glyph unicode="&#xa2;" horiz-adv-x="917" d="M104 403v250q0 172 58.5 273.5t189.5 132.5v133h226v-129q123 -33 183 -121t60 -223v-68h-213v31q0 94 -28.5 155.5t-108.5 61.5q-47 0 -74.5 -20.5t-42 -56.5t-19.5 -84t-5 -103v-213q0 -55 4 -103.5t19.5 -84t43 -56t74.5 -20.5q43 0 69.5 16t42 46t20.5 69t5 86v31 h213v-66q0 -141 -60.5 -228t-182.5 -116v-131h-226v133q-72 16 -119 52t-75.5 88t-41 120t-12.5 145z" />
<glyph unicode="&#xa3;" horiz-adv-x="1097" d="M106 0v190h123v283h-123v191h123v309q0 188 97.5 298.5t294.5 110.5q193 0 288 -101t95 -300v-35h-222v66q0 31 -8 63.5t-26.5 58t-50 42t-76.5 16.5t-77 -17.5t-52.5 -45t-29.5 -62.5t-9 -72v-331h366v-191h-366v-283h557v-190h-904z" />
<glyph unicode="&#xa4;" horiz-adv-x="1028" d="M125 1133h201l80 -138q18 4 45.5 8.5t60.5 4.5q31 0 58.5 -4.5t50.5 -8.5l77 138h203l-123 -222q51 -41 75 -109.5t24 -148.5v-61q0 -90 -21.5 -158.5t-75.5 -116.5l119 -217h-203l-75 136q-25 -4 -50.5 -7.5t-58.5 -3.5t-60.5 2t-50.5 6l-71 -133h-203l115 219 q-47 41 -69.5 97.5t-22.5 136.5v82q0 92 20 160.5t74 117.5zM373 598q0 -98 27.5 -149.5t113.5 -51.5q80 0 109.5 42t29.5 120v76q0 96 -27.5 148.5t-111.5 52.5t-112.5 -53.5t-28.5 -147.5v-37z" />
<glyph unicode="&#xa5;" horiz-adv-x="1103" d="M90 1362h234l225 -561h6l227 561h232l-318 -672h250v-137h-282v-84h282v-137h-282v-332h-226v332h-282v137h282v84h-282v137h243z" />
<glyph unicode="&#xa6;" horiz-adv-x="632" d="M203 -236v807h227v-807h-227zM203 813v807h227v-807h-227z" />
<glyph unicode="&#xa7;" horiz-adv-x="917" d="M106 745q0 66 30 113t75 82q-47 35 -76 80t-29 117q0 51 20.5 101t61.5 89t105.5 63.5t152.5 24.5q182 0 270.5 -86t88.5 -252v-18h-217v24q0 66 -30 113t-103 47q-70 0 -97.5 -31.5t-27.5 -68.5q0 -39 22.5 -67.5t57 -52.5t75.5 -42t78 -37q137 -66 193.5 -132.5 t56.5 -156.5q0 -68 -29.5 -119t-74.5 -85q53 -47 74.5 -94.5t21.5 -100.5q0 -55 -21.5 -105.5t-64.5 -88t-105.5 -60t-144.5 -22.5q-182 0 -269 87t-87 250v19h217v-25q0 -68 26.5 -113.5t104.5 -45.5q61 0 93 26.5t32 69.5q0 39 -23.5 69.5t-59.5 55t-79 44t-80 38.5 q-125 59 -181.5 125.5t-56.5 164.5zM297 762q0 -23 10 -42.5t36 -38.5t68 -44t107 -55l51 -25q47 31 47 80q0 45 -38.5 83t-151.5 87l-76 31q-53 -23 -53 -76z" />
<glyph unicode="&#xa8;" horiz-adv-x="1044" d="M236 1272q0 49 33.5 81.5t84.5 32.5q53 0 85 -32.5t32 -81.5t-31.5 -82t-85.5 -33q-51 0 -84.5 33t-33.5 82zM573 1272q0 49 33 81.5t86 32.5t85 -32.5t32 -81.5t-32 -82t-85 -33t-86 33t-33 82z" />
<glyph unicode="&#xa9;" horiz-adv-x="1562" d="M111 535v276q0 125 36.5 239.5t117.5 201.5t208 139.5t307 52.5t308.5 -53.5t209 -140.5t118.5 -201.5t38 -237.5v-276q0 -141 -39 -256t-122 -195t-210 -123t-303 -43t-303 44t-208 125t-119.5 194.5t-38.5 253.5zM293 504q0 -92 28.5 -171t88 -136.5t151.5 -90 t219 -32.5q129 0 221.5 33.5t152.5 94t88 144.5t28 182v314q0 86 -28 167t-88 142t-152.5 99t-221.5 38q-131 0 -224 -38t-151.5 -102.5t-85 -147t-26.5 -175.5v-321zM457 623v112q0 94 14 171t51 132.5t99.5 85t160.5 29.5q88 0 149.5 -24.5t101.5 -68.5t58.5 -107.5 t18.5 -141.5v-41h-192v59q0 72 -27 118t-105 46q-47 0 -74.5 -18.5t-42 -49t-18.5 -71.5t-4 -86v-180q0 -45 4 -85t19.5 -71t42 -48t73.5 -17q78 0 105 46t27 117v60h192v-25q0 -82 -17.5 -147.5t-55.5 -112.5t-100.5 -72.5t-152.5 -25.5q-98 0 -161.5 28.5t-100.5 83 t-51 131t-14 173.5z" />
<glyph unicode="&#xaa;" horiz-adv-x="647" d="M68 903v41q0 74 46 123t138 49q39 0 64.5 -6t54.5 -18v92q0 35 -14.5 60.5t-57.5 25.5q-72 0 -72 -84v-17h-145v19q0 86 51 140t168 54q231 0 231 -225v-260q0 -51 52 -51v-125q-86 2 -125 17.5t-62 60.5q-23 -35 -61.5 -56.5t-93.5 -21.5q-76 0 -125 44t-49 138z M227 909q0 -35 14.5 -56.5t55.5 -21.5q27 0 43 9.5t31 21.5v146q-16 4 -29.5 8t-36.5 4q-43 0 -60.5 -20.5t-17.5 -59.5v-31z" />
<glyph unicode="&#xab;" horiz-adv-x="1087" d="M78 504v192l354 303l137 -147l-297 -252l297 -254l-137 -147zM524 504v192l353 303l139 -147l-297 -252l297 -254l-139 -147z" />
<glyph unicode="&#xac;" horiz-adv-x="856" d="M160 584v188h536v-360h-186v172h-350z" />
<glyph unicode="&#xad;" horiz-adv-x="694" />
<glyph unicode="&#xae;" horiz-adv-x="1253" d="M96 823v127q0 106 30 197.5t94.5 159t163.5 105.5t241 38q141 0 241.5 -38t165 -105.5t95 -158.5t30.5 -198v-129q0 -106 -30.5 -197.5t-95 -158t-165 -104t-241.5 -37.5t-240.5 37.5t-164 104t-94.5 158t-30 199.5zM266 821q0 -195 94.5 -274.5t264.5 -79.5 q172 0 266 79t94 275v131q0 193 -94 274t-266 81q-170 0 -264.5 -81t-94.5 -274v-131zM432 592v604h199q100 0 151.5 -47t51.5 -121v-22q0 -100 -82 -138l114 -276h-151l-94 254h-48v-254h-141zM573 936h43q41 0 57.5 13.5t16.5 47.5v27q0 63 -74 63h-43v-151z" />
<glyph unicode="&#xaf;" horiz-adv-x="1058" d="M272 1190v172h514v-172h-514z" />
<glyph unicode="&#xb0;" horiz-adv-x="616" d="M74 1286q0 96 63.5 156.5t171.5 60.5q111 0 173.5 -60.5t62.5 -156.5t-62.5 -156.5t-173.5 -60.5q-109 0 -172 60.5t-63 156.5zM227 1286q0 -35 20.5 -56.5t61.5 -21.5q43 0 62.5 21.5t19.5 56.5t-19.5 56.5t-62.5 21.5q-41 0 -61.5 -21.5t-20.5 -56.5z" />
<glyph unicode="&#xb1;" horiz-adv-x="856" d="M160 231v189h536v-189h-536zM160 584v188h174v113h188v-113h174v-188h-174v-113h-188v113h-174z" />
<glyph unicode="&#xb2;" horiz-adv-x="737" d="M92 1124v19q0 47 15.5 90t50.5 76.5t90 53t135 19.5q145 0 207.5 -61t62.5 -147v-17q0 -76 -53 -144.5t-147 -160.5l-144 -143h344v-156h-553v170l140 135q111 102 167 163.5t56 115.5v8q0 35 -19.5 59.5t-66.5 24.5q-51 0 -72.5 -27.5t-21.5 -62.5v-15h-191z" />
<glyph unicode="&#xb3;" horiz-adv-x="739" d="M86 770v27h184v-17q0 -37 19.5 -61.5t70.5 -24.5t72 27t21 65v25q0 43 -28 68.5t-89 25.5h-72v144h62q70 0 98.5 25.5t28.5 66.5v14q0 31 -20.5 52.5t-70.5 21.5q-49 0 -70.5 -22.5t-21.5 -55.5v-12h-184v14q0 98 68.5 163.5t218.5 65.5q72 0 123 -17t83.5 -45t48 -62.5 t15.5 -71.5v-25q0 -59 -34 -104t-89 -66v-6q59 -23 91 -68t32 -104v-39q0 -102 -72.5 -167.5t-210.5 -65.5q-135 0 -204.5 61.5t-69.5 167.5z" />
<glyph unicode="&#xb4;" horiz-adv-x="1058" d="M395 1130l125 285h228l-175 -285h-178z" />
<glyph unicode="&#xb5;" horiz-adv-x="1038" d="M152 -430v1487h223v-744q0 -70 29.5 -112.5t107.5 -42.5q53 0 89 19.5t58 45.5v834h224v-801q0 -41 16 -63.5t72 -22.5v-190q-104 0 -154.5 22.5t-79.5 83.5q-41 -51 -96 -78.5t-129 -27.5q-88 0 -135 47v-283l-25 -174h-200z" />
<glyph unicode="&#xb6;" horiz-adv-x="1040" d="M119 1036v21q0 152 67.5 228.5t221.5 76.5h143v-1362h-64v731h-81q-152 0 -219.5 78t-67.5 227zM674 0v1362h223v-1362h-223z" />
<glyph unicode="&#xb7;" horiz-adv-x="788" d="M276 709q0 51 36 85.5t91 34.5t88 -34.5t33 -85.5t-32.5 -86t-88.5 -35q-55 0 -91 34.5t-36 86.5z" />
<glyph unicode="&#xb8;" horiz-adv-x="1058" d="M346 -250h137v-4q0 -29 20.5 -47t61.5 -18q84 0 84 75q0 41 -28.5 57.5t-88.5 16.5h-81v170h120v-76h21q45 0 83 -8t65.5 -27.5t43 -52.5t15.5 -80q0 -90 -61.5 -142t-172.5 -52q-219 0 -219 184v4z" />
<glyph unicode="&#xb9;" horiz-adv-x="737" d="M80 1208l264 162h217v-817h-188v625l-193 -113z" />
<glyph unicode="&#xba;" horiz-adv-x="610" d="M72 954v187q0 111 55 176t176 65q119 0 176.5 -62.5t57.5 -170.5v-188q0 -111 -56.5 -175.5t-177.5 -64.5q-117 0 -174 62.5t-57 170.5zM227 930q0 -37 16.5 -64.5t59.5 -27.5q45 0 61.5 27.5t16.5 64.5v244q0 39 -16.5 66.5t-61.5 27.5q-47 0 -61.5 -31t-14.5 -70v-237z " />
<glyph unicode="&#xbb;" horiz-adv-x="1087" d="M72 346l297 254l-297 252l139 147l352 -303v-192l-352 -305zM518 346l297 254l-297 252l139 147l353 -303v-192l-353 -305z" />
<glyph unicode="&#xbc;" horiz-adv-x="1775" d="M80 1208l264 162h217v-817h-188v625l-193 -113zM479 0l711 1362h186l-711 -1362h-186zM1110 139v193l297 485h198l-317 -524h215v135h172v-428h-172v139h-393z" />
<glyph unicode="&#xbd;" horiz-adv-x="1773" d="M80 1208l264 162h217v-817h-188v625l-193 -113zM438 0l711 1362h186l-711 -1362h-186zM1128 571v19q0 47 15.5 90t50.5 76.5t90 53t135 19.5q145 0 207.5 -61t62.5 -147v-17q0 -76 -53 -144.5t-147 -160.5l-144 -143h344v-156h-553v170l140 135q111 102 167 163.5 t56 115.5v8q0 35 -19.5 59.5t-66.5 24.5q-51 0 -72.5 -27.5t-21.5 -62.5v-15h-191z" />
<glyph unicode="&#xbe;" horiz-adv-x="1777" d="M86 770v27h184v-17q0 -37 19.5 -61.5t70.5 -24.5t72 27t21 65v25q0 43 -28 68.5t-89 25.5h-72v144h62q70 0 98.5 25.5t28.5 66.5v14q0 31 -20.5 52.5t-70.5 21.5q-49 0 -70.5 -22.5t-21.5 -55.5v-12h-184v14q0 98 68.5 163.5t218.5 65.5q72 0 123 -17t83.5 -45t48 -62.5 t15.5 -71.5v-25q0 -59 -34 -104t-89 -66v-6q59 -23 91 -68t32 -104v-39q0 -102 -72.5 -167.5t-210.5 -65.5q-135 0 -204.5 61.5t-69.5 167.5zM481 0l711 1362h186l-711 -1362h-186zM1112 139v193l297 485h198l-317 -524h215v135h172v-428h-172v139h-393z" />
<glyph unicode="&#xbf;" horiz-adv-x="980" d="M125 -41v84q0 43 7 79t26.5 71.5t53.5 71.5t87 77q45 33 72.5 64.5t41 65.5t17.5 76t4 97v55h228v-77q0 -66 -5.5 -117t-24 -94t-52 -82t-91.5 -84q-45 -35 -71.5 -61.5t-41 -51t-19.5 -48.5t-5 -52v-49q0 -49 34 -79t99 -30q70 0 109 38t39 103v82h227v-65 q0 -16 -1 -32.5t-3 -33.5q-6 -61 -31.5 -112.5t-72.5 -89t-116 -59t-157 -21.5q-178 0 -266 75.5t-88 198.5zM412 948q0 57 35.5 93t97.5 36q59 0 95 -36t36 -93t-36 -92t-95 -35q-61 0 -97 35t-36 92z" />
<glyph unicode="&#xc0;" horiz-adv-x="1036" d="M39 0l352 1362h256l348 -1362h-231l-66 270h-370l-68 -270h-221zM332 1720h227l125 -285h-176zM365 463h294l-145 600h-6z" />
<glyph unicode="&#xc1;" horiz-adv-x="1036" d="M39 0l352 1362h256l348 -1362h-231l-66 270h-370l-68 -270h-221zM365 463h294l-145 600h-6zM385 1435l125 285h228l-175 -285h-178z" />
<glyph unicode="&#xc2;" horiz-adv-x="1036" d="M39 0l352 1362h256l348 -1362h-231l-66 270h-370l-68 -270h-221zM244 1435l184 285h185l182 -285h-176l-99 160l-98 -160h-178zM365 463h294l-145 600h-6z" />
<glyph unicode="&#xc3;" horiz-adv-x="1036" d="M39 0l352 1362h256l348 -1362h-231l-66 270h-370l-68 -270h-221zM201 1448v12q0 119 56.5 172t131.5 53q45 0 77 -10t57.5 -22.5t49 -22.5t50.5 -10q25 0 39 12t14 45v14h164v-14q0 -119 -52.5 -174t-123.5 -55q-45 0 -79 12t-61.5 25.5t-52 26t-51.5 12.5q-57 0 -57 -64 v-12h-162zM365 463h294l-145 600h-6z" />
<glyph unicode="&#xc4;" horiz-adv-x="1036" d="M39 0l352 1362h256l348 -1362h-231l-66 270h-370l-68 -270h-221zM232 1577q0 49 33.5 81.5t84.5 32.5q53 0 85 -32.5t32 -81.5t-31.5 -82t-85.5 -33q-51 0 -84.5 33t-33.5 82zM365 463h294l-145 600h-6zM569 1577q0 49 33 81.5t86 32.5t85 -32.5t32 -81.5t-32 -82 t-85 -33t-86 33t-33 82z" />
<glyph unicode="&#xc5;" horiz-adv-x="1036" d="M39 0l352 1362h256l348 -1362h-231l-66 270h-370l-68 -270h-221zM330 1595q0 82 52 129t138 47t138.5 -47t52.5 -129t-52.5 -129t-138.5 -47t-138 47t-52 129zM365 463h294l-145 600h-6zM451 1595q0 -29 16.5 -50t52.5 -21q37 0 53.5 21.5t16.5 49.5q0 31 -16.5 50.5 t-53.5 19.5t-53 -19.5t-16 -50.5z" />
<glyph unicode="&#xc6;" horiz-adv-x="1429" d="M25 0l612 1362h721v-197h-434v-342h358v-190h-358v-443h434v-190h-660v270h-327l-117 -270h-229zM444 461h254v583h-8z" />
<glyph unicode="&#xc7;" horiz-adv-x="966" d="M113 420v522q0 211 97 325.5t298 114.5q188 0 284.5 -113.5t96.5 -312.5v-16h-223v41q0 39 -8.5 77t-27 67.5t-50 48t-76.5 18.5q-49 0 -81 -19.5t-51.5 -52.5t-27.5 -76t-8 -88v-550q0 -109 37 -171.5t129 -62.5q49 0 80.5 17.5t50 47t26 67.5t7.5 79v39h223v-19 q0 -184 -89 -297.5t-263 -123.5v-58h20q45 0 83 -8t65.5 -27.5t43 -52.5t15.5 -80q0 -90 -61.5 -142t-172.5 -52q-219 0 -219 184v4h138v-4q0 -29 20 -47t61 -18q84 0 84 75q0 41 -28.5 57.5t-87.5 16.5h-82v156q-154 25 -228.5 136t-74.5 298z" />
<glyph unicode="&#xc8;" horiz-adv-x="888" d="M141 0v1362h678v-197h-454v-342h376v-190h-376v-443h454v-190h-678zM299 1720h227l125 -285h-176z" />
<glyph unicode="&#xc9;" horiz-adv-x="888" d="M141 0v1362h678v-197h-454v-342h376v-190h-376v-443h454v-190h-678zM352 1435l125 285h228l-175 -285h-178z" />
<glyph unicode="&#xca;" horiz-adv-x="888" d="M141 0v1362h678v-197h-454v-342h376v-190h-376v-443h454v-190h-678zM211 1435l184 285h185l182 -285h-176l-99 160l-98 -160h-178z" />
<glyph unicode="&#xcb;" horiz-adv-x="888" d="M141 0v1362h678v-197h-454v-342h376v-190h-376v-443h454v-190h-678zM199 1577q0 49 33.5 81.5t84.5 32.5q53 0 85 -32.5t32 -81.5t-31.5 -82t-85.5 -33q-51 0 -84.5 33t-33.5 82zM536 1577q0 49 33 81.5t86 32.5t85 -32.5t32 -81.5t-32 -82t-85 -33t-86 33t-33 82z" />
<glyph unicode="&#xcc;" horiz-adv-x="507" d="M68 1720h227l125 -285h-176zM141 0v1362h226v-1362h-226z" />
<glyph unicode="&#xcd;" horiz-adv-x="507" d="M121 1435l125 285h228l-175 -285h-178zM141 0v1362h226v-1362h-226z" />
<glyph unicode="&#xce;" horiz-adv-x="507" d="M-20 1435l184 285h185l182 -285h-176l-99 160l-98 -160h-178zM141 0v1362h226v-1362h-226z" />
<glyph unicode="&#xcf;" horiz-adv-x="507" d="M-32 1577q0 49 33.5 81.5t84.5 32.5q53 0 85 -32.5t32 -81.5t-31.5 -82t-85.5 -33q-51 0 -84.5 33t-33.5 82zM141 0v1362h226v-1362h-226zM305 1577q0 49 33 81.5t86 32.5t85 -32.5t32 -81.5t-32 -82t-85 -33t-86 33t-33 82z" />
<glyph unicode="&#xd0;" horiz-adv-x="1054" d="M41 584v192h106v586h402q199 0 296 -105.5t97 -312.5v-526q0 -207 -97 -312.5t-296 -105.5h-402v584h-106zM373 190h174q96 0 134 62.5t38 155.5v548q0 90 -38 149.5t-134 59.5h-174v-389h174v-192h-174v-394z" />
<glyph unicode="&#xd1;" horiz-adv-x="1118" d="M141 0v1362h236l401 -993h10v993h189v-1362h-236l-403 973h-8v-973h-189zM240 1448v12q0 119 56.5 172t131.5 53q45 0 77 -10t57.5 -22.5t49 -22.5t50.5 -10q25 0 39 12t14 45v14h164v-14q0 -119 -52.5 -174t-123.5 -55q-45 0 -79 12t-61.5 25.5t-52 26t-51.5 12.5 q-57 0 -57 -64v-12h-162z" />
<glyph unicode="&#xd2;" d="M111 420v522q0 211 95 325.5t292 114.5t293 -114.5t96 -325.5v-522q0 -211 -97.5 -325.5t-293.5 -114.5q-195 0 -290 114.5t-95 325.5zM311 1720h227l125 -285h-176zM334 406q0 -45 7 -87.5t24.5 -75t49 -52t81.5 -19.5q49 0 81.5 19.5t51 52t27 74.5t8.5 88v550 q0 45 -7.5 87t-27 75t-52 53.5t-81.5 20.5t-80 -20.5t-49.5 -53.5t-25.5 -75t-7 -87v-550z" />
<glyph unicode="&#xd3;" d="M111 420v522q0 211 95 325.5t292 114.5t293 -114.5t96 -325.5v-522q0 -211 -97.5 -325.5t-293.5 -114.5q-195 0 -290 114.5t-95 325.5zM334 406q0 -45 7 -87.5t24.5 -75t49 -52t81.5 -19.5q49 0 81.5 19.5t51 52t27 74.5t8.5 88v550q0 45 -7.5 87t-27 75t-52 53.5 t-81.5 20.5t-80 -20.5t-49.5 -53.5t-25.5 -75t-7 -87v-550zM364 1435l125 285h228l-175 -285h-178z" />
<glyph unicode="&#xd4;" d="M111 420v522q0 211 95 325.5t292 114.5t293 -114.5t96 -325.5v-522q0 -211 -97.5 -325.5t-293.5 -114.5q-195 0 -290 114.5t-95 325.5zM223 1435l184 285h185l182 -285h-176l-99 160l-98 -160h-178zM334 406q0 -45 7 -87.5t24.5 -75t49 -52t81.5 -19.5q49 0 81.5 19.5 t51 52t27 74.5t8.5 88v550q0 45 -7.5 87t-27 75t-52 53.5t-81.5 20.5t-80 -20.5t-49.5 -53.5t-25.5 -75t-7 -87v-550z" />
<glyph unicode="&#xd5;" d="M111 420v522q0 211 95 325.5t292 114.5t293 -114.5t96 -325.5v-522q0 -211 -97.5 -325.5t-293.5 -114.5q-195 0 -290 114.5t-95 325.5zM180 1448v12q0 119 56.5 172t131.5 53q45 0 77 -10t57.5 -22.5t49 -22.5t50.5 -10q25 0 39 12t14 45v14h164v-14q0 -119 -52.5 -174 t-123.5 -55q-45 0 -79 12t-61.5 25.5t-52 26t-51.5 12.5q-57 0 -57 -64v-12h-162zM334 406q0 -45 7 -87.5t24.5 -75t49 -52t81.5 -19.5q49 0 81.5 19.5t51 52t27 74.5t8.5 88v550q0 45 -7.5 87t-27 75t-52 53.5t-81.5 20.5t-80 -20.5t-49.5 -53.5t-25.5 -75t-7 -87v-550z " />
<glyph unicode="&#xd6;" d="M111 420v522q0 211 95 325.5t292 114.5t293 -114.5t96 -325.5v-522q0 -211 -97.5 -325.5t-293.5 -114.5q-195 0 -290 114.5t-95 325.5zM213 1577q0 49 33.5 81.5t84.5 32.5q53 0 85 -32.5t32 -81.5t-31.5 -82t-85.5 -33q-51 0 -84.5 33t-33.5 82zM334 406q0 -45 7 -87.5 t24.5 -75t49 -52t81.5 -19.5q49 0 81.5 19.5t51 52t27 74.5t8.5 88v550q0 45 -7.5 87t-27 75t-52 53.5t-81.5 20.5t-80 -20.5t-49.5 -53.5t-25.5 -75t-7 -87v-550zM550 1577q0 49 33 81.5t86 32.5t85 -32.5t32 -81.5t-32 -82t-85 -33t-86 33t-33 82z" />
<glyph unicode="&#xd7;" horiz-adv-x="856" d="M172 494l123 122l-123 125l131 131l125 -122l123 122l133 -131l-123 -125l123 -122l-133 -134l-123 123l-125 -123z" />
<glyph unicode="&#xd8;" horiz-adv-x="1001" d="M111 420v522q0 211 95 325.5t292 114.5q137 0 233 -63l53 119l105 -47l-74 -160q72 -109 72 -289v-522q0 -211 -97.5 -325.5t-293.5 -114.5q-137 0 -228 59l-51 -113l-102 47l69 152q-74 111 -73 295zM334 451l301 659q-18 37 -52 59.5t-87 22.5q-49 0 -80 -20.5 t-49.5 -53.5t-25.5 -75t-7 -87v-505zM365 246q16 -35 47.5 -54.5t83.5 -19.5q49 0 81.5 19.5t51 52t27 74.5t8.5 88v493z" />
<glyph unicode="&#xd9;" horiz-adv-x="1056" d="M137 420v942h223v-956q0 -49 9.5 -91.5t30 -74t52 -50t76.5 -18.5q94 0 131 66.5t37 167.5v956h226v-942q0 -211 -97.5 -325.5t-296.5 -114.5t-295 114.5t-96 325.5zM342 1720h227l125 -285h-176z" />
<glyph unicode="&#xda;" horiz-adv-x="1056" d="M137 420v942h223v-956q0 -49 9.5 -91.5t30 -74t52 -50t76.5 -18.5q94 0 131 66.5t37 167.5v956h226v-942q0 -211 -97.5 -325.5t-296.5 -114.5t-295 114.5t-96 325.5zM395 1435l125 285h228l-175 -285h-178z" />
<glyph unicode="&#xdb;" horiz-adv-x="1056" d="M137 420v942h223v-956q0 -49 9.5 -91.5t30 -74t52 -50t76.5 -18.5q94 0 131 66.5t37 167.5v956h226v-942q0 -211 -97.5 -325.5t-296.5 -114.5t-295 114.5t-96 325.5zM254 1435l184 285h185l182 -285h-176l-99 160l-98 -160h-178z" />
<glyph unicode="&#xdc;" horiz-adv-x="1056" d="M137 420v942h223v-956q0 -49 9.5 -91.5t30 -74t52 -50t76.5 -18.5q94 0 131 66.5t37 167.5v956h226v-942q0 -211 -97.5 -325.5t-296.5 -114.5t-295 114.5t-96 325.5zM242 1577q0 49 33.5 81.5t84.5 32.5q53 0 85 -32.5t32 -81.5t-31.5 -82t-85.5 -33q-51 0 -84.5 33 t-33.5 82zM579 1577q0 49 33 81.5t86 32.5t85 -32.5t32 -81.5t-32 -82t-85 -33t-86 33t-33 82z" />
<glyph unicode="&#xdd;" horiz-adv-x="1009" d="M41 1362h231l226 -676h10l229 676h232l-353 -956v-406h-225v408zM370 1435l125 285h228l-175 -285h-178z" />
<glyph unicode="&#xde;" horiz-adv-x="991" d="M141 0v1362h230v-260h168q166 0 266 -93.5t100 -265.5v-125q0 -174 -100 -265t-266 -91h-168v-262h-230zM371 455h149q74 0 117 46t43 117v127q0 72 -43 118t-117 46h-149v-454z" />
<glyph unicode="&#xdf;" horiz-adv-x="980" d="M141 -266v1310q0 92 21.5 167t66.5 129.5t115 84t168 29.5q182 0 269 -89t87 -247v-31q0 -104 -43 -167.5t-120 -98.5q82 -35 123.5 -105.5t41.5 -193.5v-196q0 -160 -82.5 -245t-240.5 -85h-51v188h28q55 0 89 37t34 107v223q0 72 -34.5 115t-106.5 43h-31v190h31 q70 0 103.5 44t33.5 104v75q0 59 -29.5 106.5t-103.5 47.5q-43 0 -71.5 -16.5t-45 -44t-22.5 -62.5t-6 -70v-1175l-17 -174h-207z" />
<glyph unicode="&#xe0;" horiz-adv-x="970" d="M102 281v57q0 61 16.5 115.5t53.5 94.5t94.5 63.5t139.5 23.5q55 0 101 -10.5t89 -28.5v139q0 66 -26.5 115t-108.5 49q-74 0 -103.5 -40t-29.5 -105v-27h-203v33q0 63 18.5 121.5t59.5 101.5t105.5 68.5t156.5 25.5q98 0 166.5 -24.5t109.5 -71.5t59.5 -115.5 t18.5 -154.5v-463q0 -76 90 -78v-190q-121 0 -183 27.5t-91 101.5q-41 -59 -98.5 -94t-149.5 -35q-137 0 -211 75.5t-74 225.5zM299 1415h227l125 -285h-176zM328 295q0 -68 25.5 -105.5t103.5 -37.5q47 0 81.5 18t57.5 45v244q-31 10 -56.5 16t-66.5 6q-82 0 -113.5 -40 t-31.5 -107v-39z" />
<glyph unicode="&#xe1;" horiz-adv-x="970" d="M102 281v57q0 61 16.5 115.5t53.5 94.5t94.5 63.5t139.5 23.5q55 0 101 -10.5t89 -28.5v139q0 66 -26.5 115t-108.5 49q-74 0 -103.5 -40t-29.5 -105v-27h-203v33q0 63 18.5 121.5t59.5 101.5t105.5 68.5t156.5 25.5q98 0 166.5 -24.5t109.5 -71.5t59.5 -115.5 t18.5 -154.5v-463q0 -76 90 -78v-190q-121 0 -183 27.5t-91 101.5q-41 -59 -98.5 -94t-149.5 -35q-137 0 -211 75.5t-74 225.5zM328 295q0 -68 25.5 -105.5t103.5 -37.5q47 0 81.5 18t57.5 45v244q-31 10 -56.5 16t-66.5 6q-82 0 -113.5 -40t-31.5 -107v-39zM352 1130 l125 285h228l-175 -285h-178z" />
<glyph unicode="&#xe2;" horiz-adv-x="970" d="M102 281v57q0 61 16.5 115.5t53.5 94.5t94.5 63.5t139.5 23.5q55 0 101 -10.5t89 -28.5v139q0 66 -26.5 115t-108.5 49q-74 0 -103.5 -40t-29.5 -105v-27h-203v33q0 63 18.5 121.5t59.5 101.5t105.5 68.5t156.5 25.5q98 0 166.5 -24.5t109.5 -71.5t59.5 -115.5 t18.5 -154.5v-463q0 -76 90 -78v-190q-121 0 -183 27.5t-91 101.5q-41 -59 -98.5 -94t-149.5 -35q-137 0 -211 75.5t-74 225.5zM211 1130l184 285h185l182 -285h-176l-99 160l-98 -160h-178zM328 295q0 -68 25.5 -105.5t103.5 -37.5q47 0 81.5 18t57.5 45v244 q-31 10 -56.5 16t-66.5 6q-82 0 -113.5 -40t-31.5 -107v-39z" />
<glyph unicode="&#xe3;" horiz-adv-x="970" d="M102 281v57q0 61 16.5 115.5t53.5 94.5t94.5 63.5t139.5 23.5q55 0 101 -10.5t89 -28.5v139q0 66 -26.5 115t-108.5 49q-74 0 -103.5 -40t-29.5 -105v-27h-203v33q0 63 18.5 121.5t59.5 101.5t105.5 68.5t156.5 25.5q98 0 166.5 -24.5t109.5 -71.5t59.5 -115.5 t18.5 -154.5v-463q0 -76 90 -78v-190q-121 0 -183 27.5t-91 101.5q-41 -59 -98.5 -94t-149.5 -35q-137 0 -211 75.5t-74 225.5zM168 1143v12q0 119 56.5 172t131.5 53q45 0 77 -10t57.5 -22.5t49 -22.5t50.5 -10q25 0 39 12t14 45v14h164v-14q0 -119 -52.5 -174t-123.5 -55 q-45 0 -79 12t-61.5 25.5t-52 26t-51.5 12.5q-57 0 -57 -64v-12h-162zM328 295q0 -68 25.5 -105.5t103.5 -37.5q47 0 81.5 18t57.5 45v244q-31 10 -56.5 16t-66.5 6q-82 0 -113.5 -40t-31.5 -107v-39z" />
<glyph unicode="&#xe4;" horiz-adv-x="970" d="M102 281v57q0 61 16.5 115.5t53.5 94.5t94.5 63.5t139.5 23.5q55 0 101 -10.5t89 -28.5v139q0 66 -26.5 115t-108.5 49q-74 0 -103.5 -40t-29.5 -105v-27h-203v33q0 63 18.5 121.5t59.5 101.5t105.5 68.5t156.5 25.5q98 0 166.5 -24.5t109.5 -71.5t59.5 -115.5 t18.5 -154.5v-463q0 -76 90 -78v-190q-121 0 -183 27.5t-91 101.5q-41 -59 -98.5 -94t-149.5 -35q-137 0 -211 75.5t-74 225.5zM199 1272q0 49 33.5 81.5t84.5 32.5q53 0 85 -32.5t32 -81.5t-31.5 -82t-85.5 -33q-51 0 -84.5 33t-33.5 82zM328 295q0 -68 25.5 -105.5 t103.5 -37.5q47 0 81.5 18t57.5 45v244q-31 10 -56.5 16t-66.5 6q-82 0 -113.5 -40t-31.5 -107v-39zM536 1272q0 49 33 81.5t86 32.5t85 -32.5t32 -81.5t-32 -82t-85 -33t-86 33t-33 82z" />
<glyph unicode="&#xe5;" horiz-adv-x="970" d="M102 281v57q0 61 16.5 115.5t53.5 94.5t94.5 63.5t139.5 23.5q55 0 101 -10.5t89 -28.5v139q0 66 -26.5 115t-108.5 49q-74 0 -103.5 -40t-29.5 -105v-27h-203v33q0 63 18.5 121.5t59.5 101.5t105.5 68.5t156.5 25.5q98 0 166.5 -24.5t109.5 -71.5t59.5 -115.5 t18.5 -154.5v-463q0 -76 90 -78v-190q-121 0 -183 27.5t-91 101.5q-41 -59 -98.5 -94t-149.5 -35q-137 0 -211 75.5t-74 225.5zM297 1290q0 82 52 129t138 47t138.5 -47t52.5 -129t-52.5 -129t-138.5 -47t-138 47t-52 129zM328 295q0 -68 25.5 -105.5t103.5 -37.5 q47 0 81.5 18t57.5 45v244q-31 10 -56.5 16t-66.5 6q-82 0 -113.5 -40t-31.5 -107v-39zM418 1290q0 -29 16.5 -50t52.5 -21q37 0 53.5 21.5t16.5 49.5q0 31 -16.5 50.5t-53.5 19.5t-53 -19.5t-16 -50.5z" />
<glyph unicode="&#xe6;" horiz-adv-x="1433" d="M106 281v57q0 61 16.5 115.5t53.5 94.5t95.5 63.5t140.5 23.5q53 0 99 -10.5t89 -28.5v102q0 39 -4 76t-18.5 64.5t-41 44t-71.5 16.5q-72 0 -102.5 -40t-30.5 -105v-27h-203v33q0 66 20.5 123t60.5 100t100.5 68.5t142.5 25.5q100 0 161.5 -34.5t108.5 -100.5 q39 63 102.5 99t161.5 36q184 0 261 -119.5t77 -330.5v-162h-500v-100q0 -90 29 -148.5t115 -58.5q74 0 104.5 50t30.5 124v18h221q0 -76 -19.5 -143.5t-61.5 -117.5t-107.5 -79.5t-157.5 -29.5t-157.5 34.5t-108.5 96.5q-59 -68 -134 -99.5t-167 -31.5q-305 0 -306 301z M332 295q0 -68 26.5 -105.5t104.5 -37.5q53 0 93 24t65 55q-10 43 -15.5 87t-5.5 81v60q-29 10 -54.5 16t-68.5 6q-84 0 -114.5 -40t-30.5 -107v-39zM825 629h277v47q0 94 -26.5 158.5t-110.5 64.5q-43 0 -70 -16.5t-42 -44t-21.5 -63.5t-6.5 -75v-71z" />
<glyph unicode="&#xe7;" horiz-adv-x="925" d="M109 387v229q0 104 19 189.5t62 146t113 93t170 32.5q92 0 158.5 -27.5t109.5 -77.5t63.5 -120t20.5 -154v-47h-213v60q0 80 -30.5 134t-106.5 54q-86 0 -113.5 -67.5t-27.5 -188.5v-229q0 -123 26.5 -189.5t114.5 -66.5q80 0 108.5 55t28.5 133v60h213v-48 q0 -158 -74.5 -260t-242.5 -116v-58h20q45 0 83 -8t66 -27.5t43 -52.5t15 -80q0 -90 -61.5 -142t-171.5 -52q-219 0 -219 184v4h137v-4q0 -29 20.5 -47t61.5 -18q84 0 84 75q0 41 -29 57.5t-88 16.5h-82v156q-141 23 -209.5 129t-68.5 272z" />
<glyph unicode="&#xe8;" horiz-adv-x="942" d="M109 424v207q0 100 20.5 183t63.5 141.5t111.5 90t166.5 31.5q106 0 176 -32.5t111 -93t58.5 -143.5t17.5 -181v-162h-500v-100q0 -90 28.5 -148.5t114.5 -58.5q74 0 104.5 50t30.5 124v18h222q0 -76 -19.5 -143.5t-62.5 -117.5t-113 -79.5t-168 -29.5t-168 31.5t-113 90 t-62 140.5t-19 182zM285 1415h227l125 -285h-176zM334 629h276v47q0 47 -6 88t-21.5 70.5t-42 47t-69.5 17.5q-41 0 -66.5 -15.5t-42 -42t-22.5 -61.5t-6 -73v-78z" />
<glyph unicode="&#xe9;" horiz-adv-x="942" d="M109 424v207q0 100 20.5 183t63.5 141.5t111.5 90t166.5 31.5q106 0 176 -32.5t111 -93t58.5 -143.5t17.5 -181v-162h-500v-100q0 -90 28.5 -148.5t114.5 -58.5q74 0 104.5 50t30.5 124v18h222q0 -76 -19.5 -143.5t-62.5 -117.5t-113 -79.5t-168 -29.5t-168 31.5t-113 90 t-62 140.5t-19 182zM334 629h276v47q0 47 -6 88t-21.5 70.5t-42 47t-69.5 17.5q-41 0 -66.5 -15.5t-42 -42t-22.5 -61.5t-6 -73v-78zM338 1130l125 285h228l-175 -285h-178z" />
<glyph unicode="&#xea;" horiz-adv-x="942" d="M109 424v207q0 100 20.5 183t63.5 141.5t111.5 90t166.5 31.5q106 0 176 -32.5t111 -93t58.5 -143.5t17.5 -181v-162h-500v-100q0 -90 28.5 -148.5t114.5 -58.5q74 0 104.5 50t30.5 124v18h222q0 -76 -19.5 -143.5t-62.5 -117.5t-113 -79.5t-168 -29.5t-168 31.5t-113 90 t-62 140.5t-19 182zM197 1130l184 285h185l182 -285h-176l-99 160l-98 -160h-178zM334 629h276v47q0 47 -6 88t-21.5 70.5t-42 47t-69.5 17.5q-41 0 -66.5 -15.5t-42 -42t-22.5 -61.5t-6 -73v-78z" />
<glyph unicode="&#xeb;" horiz-adv-x="942" d="M109 424v207q0 100 20.5 183t63.5 141.5t111.5 90t166.5 31.5q106 0 176 -32.5t111 -93t58.5 -143.5t17.5 -181v-162h-500v-100q0 -90 28.5 -148.5t114.5 -58.5q74 0 104.5 50t30.5 124v18h222q0 -76 -19.5 -143.5t-62.5 -117.5t-113 -79.5t-168 -29.5t-168 31.5t-113 90 t-62 140.5t-19 182zM185 1272q0 49 33.5 81.5t84.5 32.5q53 0 85 -32.5t32 -81.5t-31.5 -82t-85.5 -33q-51 0 -84.5 33t-33.5 82zM334 629h276v47q0 47 -6 88t-21.5 70.5t-42 47t-69.5 17.5q-41 0 -66.5 -15.5t-42 -42t-22.5 -61.5t-6 -73v-78zM522 1272q0 49 33 81.5 t86 32.5t85 -32.5t32 -81.5t-32 -82t-85 -33t-86 33t-33 82z" />
<glyph unicode="&#xec;" horiz-adv-x="505" d="M66 1415h227l125 -285h-176zM141 0v1057h201l23 -174v-883h-224z" />
<glyph unicode="&#xed;" horiz-adv-x="505" d="M119 1130l125 285h228l-175 -285h-178zM141 0v1057h201l23 -174v-883h-224z" />
<glyph unicode="&#xee;" horiz-adv-x="505" d="M-22 1130l184 285h185l182 -285h-176l-99 160l-98 -160h-178zM141 0v1057h201l23 -174v-883h-224z" />
<glyph unicode="&#xef;" horiz-adv-x="505" d="M-32 1272q0 49 33.5 81.5t84.5 32.5q53 0 85 -32.5t32 -81.5t-31.5 -82t-85.5 -33q-51 0 -84.5 33t-33.5 82zM141 0v1057h201l23 -174v-883h-224zM305 1272q0 49 33 81.5t86 32.5t85 -32.5t32 -81.5t-32 -82t-85 -33t-86 33t-33 82z" />
<glyph unicode="&#xf0;" horiz-adv-x="952" d="M113 391v279q0 88 21.5 163.5t62.5 129t100 84t137 30.5t124 -22.5t75 -55.5q-10 41 -37 91.5t-64 85.5l-116 -54l-43 70l88 41q-35 16 -75 24.5t-89 8.5h-16v116h18q184 0 299 -79l129 61l43 -70l-104 -51q92 -96 133 -242.5t41 -328.5v-279q0 -188 -89 -300.5 t-278 -112.5q-188 0 -274 111.5t-86 299.5zM336 377q0 -47 6 -87t21.5 -70t43 -46t68.5 -16q78 0 108.5 57t30.5 152v317q0 92 -28.5 153.5t-110.5 61.5q-78 0 -108.5 -58.5t-30.5 -158.5v-305z" />
<glyph unicode="&#xf1;" horiz-adv-x="1013" d="M141 0v1057h162l19 -90q39 41 100 75.5t158 34.5q295 0 294 -377v-700h-204l-21 174v531q0 88 -28.5 141t-106.5 53q-53 0 -90 -19.5t-59 -41.5v-838h-224zM188 1143v12q0 119 56.5 172t131.5 53q45 0 77 -10t57.5 -22.5t49 -22.5t50.5 -10q25 0 39 12t14 45v14h164v-14 q0 -119 -52.5 -174t-123.5 -55q-45 0 -79 12t-61.5 25.5t-52 26t-51.5 12.5q-57 0 -57 -64v-12h-162z" />
<glyph unicode="&#xf2;" horiz-adv-x="952" d="M113 387v283q0 92 21.5 166.5t65.5 128t111.5 83t161.5 29.5t164 -29.5t115 -83t66.5 -128t21.5 -166.5v-283q0 -186 -89 -296.5t-278 -110.5q-188 0 -274 110.5t-86 296.5zM289 1415h227l125 -285h-176zM336 373q0 -100 30.5 -157.5t108.5 -57.5t108.5 57t30.5 158v311 q0 98 -30.5 156.5t-108.5 58.5t-108.5 -58.5t-30.5 -158.5v-309z" />
<glyph unicode="&#xf3;" horiz-adv-x="952" d="M113 387v283q0 92 21.5 166.5t65.5 128t111.5 83t161.5 29.5t164 -29.5t115 -83t66.5 -128t21.5 -166.5v-283q0 -186 -89 -296.5t-278 -110.5q-188 0 -274 110.5t-86 296.5zM336 373q0 -100 30.5 -157.5t108.5 -57.5t108.5 57t30.5 158v311q0 98 -30.5 156.5t-108.5 58.5 t-108.5 -58.5t-30.5 -158.5v-309zM342 1130l125 285h228l-175 -285h-178z" />
<glyph unicode="&#xf4;" horiz-adv-x="952" d="M113 387v283q0 92 21.5 166.5t65.5 128t111.5 83t161.5 29.5t164 -29.5t115 -83t66.5 -128t21.5 -166.5v-283q0 -186 -89 -296.5t-278 -110.5q-188 0 -274 110.5t-86 296.5zM201 1130l184 285h185l182 -285h-176l-99 160l-98 -160h-178zM336 373q0 -100 30.5 -157.5 t108.5 -57.5t108.5 57t30.5 158v311q0 98 -30.5 156.5t-108.5 58.5t-108.5 -58.5t-30.5 -158.5v-309z" />
<glyph unicode="&#xf5;" horiz-adv-x="952" d="M113 387v283q0 92 21.5 166.5t65.5 128t111.5 83t161.5 29.5t164 -29.5t115 -83t66.5 -128t21.5 -166.5v-283q0 -186 -89 -296.5t-278 -110.5q-188 0 -274 110.5t-86 296.5zM158 1143v12q0 119 56.5 172t131.5 53q45 0 77 -10t57.5 -22.5t49 -22.5t50.5 -10q25 0 39 12 t14 45v14h164v-14q0 -119 -52.5 -174t-123.5 -55q-45 0 -79 12t-61.5 25.5t-52 26t-51.5 12.5q-57 0 -57 -64v-12h-162zM336 373q0 -100 30.5 -157.5t108.5 -57.5t108.5 57t30.5 158v311q0 98 -30.5 156.5t-108.5 58.5t-108.5 -58.5t-30.5 -158.5v-309z" />
<glyph unicode="&#xf6;" horiz-adv-x="952" d="M113 387v283q0 92 21.5 166.5t65.5 128t111.5 83t161.5 29.5t164 -29.5t115 -83t66.5 -128t21.5 -166.5v-283q0 -186 -89 -296.5t-278 -110.5q-188 0 -274 110.5t-86 296.5zM191 1272q0 49 33.5 81.5t84.5 32.5q53 0 85 -32.5t32 -81.5t-31.5 -82t-85.5 -33 q-51 0 -84.5 33t-33.5 82zM336 373q0 -100 30.5 -157.5t108.5 -57.5t108.5 57t30.5 158v311q0 98 -30.5 156.5t-108.5 58.5t-108.5 -58.5t-30.5 -158.5v-309zM528 1272q0 49 33 81.5t86 32.5t85 -32.5t32 -81.5t-32 -82t-85 -33t-86 33t-33 82z" />
<glyph unicode="&#xf7;" horiz-adv-x="856" d="M160 522v189h536v-189h-536zM303 344q0 55 35 90t94 35t95 -35t36 -90t-35.5 -90t-95.5 -35q-59 0 -94 35t-35 90zM303 889q0 55 35 90t94 35t95 -35t36 -90t-35.5 -90t-95.5 -35q-59 0 -94 35t-35 90z" />
<glyph unicode="&#xf8;" horiz-adv-x="952" d="M113 395v267q0 190 86 302.5t274 112.5q66 0 119 -14t94 -41l47 84l86 -43l-59 -109q80 -104 80 -280v-279q0 -193 -88 -304t-279 -111q-66 0 -119 14t-94 41l-45 -84l-88 45l59 108q-39 53 -56 126t-17 165zM336 377l250 459q-16 29 -43 46t-68 17t-68.5 -16.5t-43 -46 t-21.5 -69.5t-6 -87v-303zM362 223q16 -31 43 -48t70 -17q78 0 108.5 56t30.5 151v319z" />
<glyph unicode="&#xf9;" horiz-adv-x="1011" d="M127 338v719h225v-711q0 -88 28 -138t109 -50q49 0 84 19.5t58 45.5v834h223v-803q0 -35 17.5 -59.5t72.5 -24.5v-190q-61 0 -106 6t-76 20t-52.5 39t-37.5 61q-43 -59 -104.5 -92.5t-153.5 -33.5q-152 0 -219.5 87t-67.5 271zM319 1415h227l125 -285h-176z" />
<glyph unicode="&#xfa;" horiz-adv-x="1011" d="M127 338v719h225v-711q0 -88 28 -138t109 -50q49 0 84 19.5t58 45.5v834h223v-803q0 -35 17.5 -59.5t72.5 -24.5v-190q-61 0 -106 6t-76 20t-52.5 39t-37.5 61q-43 -59 -104.5 -92.5t-153.5 -33.5q-152 0 -219.5 87t-67.5 271zM372 1130l125 285h228l-175 -285h-178z" />
<glyph unicode="&#xfb;" horiz-adv-x="1011" d="M127 338v719h225v-711q0 -88 28 -138t109 -50q49 0 84 19.5t58 45.5v834h223v-803q0 -35 17.5 -59.5t72.5 -24.5v-190q-61 0 -106 6t-76 20t-52.5 39t-37.5 61q-43 -59 -104.5 -92.5t-153.5 -33.5q-152 0 -219.5 87t-67.5 271zM231 1130l184 285h185l182 -285h-176 l-99 160l-98 -160h-178z" />
<glyph unicode="&#xfc;" horiz-adv-x="1011" d="M127 338v719h225v-711q0 -88 28 -138t109 -50q49 0 84 19.5t58 45.5v834h223v-803q0 -35 17.5 -59.5t72.5 -24.5v-190q-61 0 -106 6t-76 20t-52.5 39t-37.5 61q-43 -59 -104.5 -92.5t-153.5 -33.5q-152 0 -219.5 87t-67.5 271zM220 1272q0 49 33.5 81.5t84.5 32.5 q53 0 85 -32.5t32 -81.5t-31.5 -82t-85.5 -33q-51 0 -84.5 33t-33.5 82zM557 1272q0 49 33 81.5t86 32.5t85 -32.5t32 -81.5t-32 -82t-85 -33t-86 33t-33 82z" />
<glyph unicode="&#xfd;" horiz-adv-x="870" d="M41 -240q45 0 89 8.5t81 27t64.5 50t39.5 78.5l19 66l-285 1067h225l158 -766h8l160 766h225l-323 -1157q-20 -74 -56 -134.5t-91.5 -104.5t-132.5 -67.5t-181 -23.5v190zM301 1130l125 285h228l-175 -285h-178z" />
<glyph unicode="&#xfe;" horiz-adv-x="985" d="M141 -430v1884h201l23 -174v-287q41 39 91 61.5t124 22.5q145 0 217.5 -95t72.5 -282v-307q0 -190 -81.5 -301.5t-237.5 -111.5q-68 0 -113 15t-73 38v-463h-224zM365 201q20 -16 52 -31.5t79 -15.5q86 0 118.5 56t32.5 163v327q0 94 -29.5 147.5t-111.5 53.5 q-47 0 -81 -17.5t-60 -45.5v-637z" />
<glyph unicode="&#xff;" horiz-adv-x="870" d="M41 -240q45 0 89 8.5t81 27t64.5 50t39.5 78.5l19 66l-285 1067h225l158 -766h8l160 766h225l-323 -1157q-20 -74 -56 -134.5t-91.5 -104.5t-132.5 -67.5t-181 -23.5v190zM150 1272q0 49 33.5 81.5t84.5 32.5q53 0 85 -32.5t32 -81.5t-31.5 -82t-85.5 -33q-51 0 -84.5 33 t-33.5 82zM487 1272q0 49 33 81.5t86 32.5t85 -32.5t32 -81.5t-32 -82t-85 -33t-86 33t-33 82z" />
<glyph unicode="&#x152;" horiz-adv-x="1413" d="M111 422v530q0 211 96 320.5t256 109.5q88 0 142 -28.5t91 -69.5v78h647v-197h-452v-342h375v-190h-375v-443h452v-190h-647v82q-37 -45 -91 -73.5t-146 -28.5q-158 0 -253 115.5t-95 326.5zM334 408q0 -47 7 -90.5t25.5 -76t50.5 -51t81 -18.5q47 0 78.5 19.5t51 51 t28 73.5t8.5 87v564q0 43 -8.5 84t-28 71.5t-51 50t-78.5 19.5q-49 0 -81 -19.5t-50.5 -50t-25.5 -71.5t-7 -84v-559z" />
<glyph unicode="&#x153;" horiz-adv-x="1452" d="M115 387v283q0 184 89 295.5t261 111.5q100 0 160.5 -35.5t105.5 -107.5q47 70 109.5 106.5t160.5 36.5q96 0 162 -32.5t106 -93t57 -143.5t17 -181v-162h-501v-100q0 -43 6 -81t22.5 -66t45 -44t71.5 -16q74 0 104.5 50t30.5 124v18h221q0 -76 -19 -143.5t-60 -117.5 t-106.5 -79.5t-158.5 -29.5q-98 0 -160.5 35.5t-109.5 103.5q-47 -66 -108.5 -102.5t-163.5 -36.5q-168 0 -255 110.5t-87 296.5zM340 403q0 -117 27.5 -181t111.5 -64q78 0 107.5 56t31.5 151v290q0 113 -28.5 178.5t-110.5 65.5q-78 0 -108.5 -58.5t-30.5 -158.5v-279z M842 629h278v47q0 47 -5 88t-20.5 70.5t-43 47t-70.5 17.5q-80 0 -109.5 -56.5t-29.5 -133.5v-80z" />
<glyph unicode="&#x178;" horiz-adv-x="1009" d="M41 1362h231l226 -676h10l229 676h232l-353 -956v-406h-225v408zM220 1577q0 49 33.5 81.5t84.5 32.5q53 0 85 -32.5t32 -81.5t-31.5 -82t-85.5 -33q-51 0 -84.5 33t-33.5 82zM557 1577q0 49 33 81.5t86 32.5t85 -32.5t32 -81.5t-32 -82t-85 -33t-86 33t-33 82z" />
<glyph unicode="&#x2c6;" horiz-adv-x="1058" d="M254 1130l184 285h185l182 -285h-176l-99 160l-98 -160h-178z" />
<glyph unicode="&#x2dc;" horiz-adv-x="1058" d="M211 1143v12q0 119 56.5 172t131.5 53q45 0 77 -10t57.5 -22.5t49 -22.5t50.5 -10q25 0 39 12t14 45v14h164v-14q0 -119 -52.5 -174t-123.5 -55q-45 0 -79 12t-61.5 25.5t-52 26t-51.5 12.5q-57 0 -57 -64v-12h-162z" />
<glyph unicode="&#x2000;" horiz-adv-x="885" />
<glyph unicode="&#x2001;" horiz-adv-x="1771" />
<glyph unicode="&#x2002;" horiz-adv-x="885" />
<glyph unicode="&#x2003;" horiz-adv-x="1771" />
<glyph unicode="&#x2004;" horiz-adv-x="590" />
<glyph unicode="&#x2005;" horiz-adv-x="442" />
<glyph unicode="&#x2006;" horiz-adv-x="295" />
<glyph unicode="&#x2007;" horiz-adv-x="295" />
<glyph unicode="&#x2008;" horiz-adv-x="221" />
<glyph unicode="&#x2009;" horiz-adv-x="354" />
<glyph unicode="&#x200a;" horiz-adv-x="98" />
<glyph unicode="&#x2010;" horiz-adv-x="694" d="M121 557v188h452v-188h-452z" />
<glyph unicode="&#x2011;" horiz-adv-x="694" d="M121 557v188h452v-188h-452z" />
<glyph unicode="&#x2012;" horiz-adv-x="694" d="M121 557v188h452v-188h-452z" />
<glyph unicode="&#x2013;" horiz-adv-x="1024" d="M123 557v188h778v-188h-778z" />
<glyph unicode="&#x2014;" horiz-adv-x="2048" d="M123 557v188h1802v-188h-1802z" />
<glyph unicode="&#x2018;" horiz-adv-x="466" d="M102 911l97 488h149l-35 -488h-211z" />
<glyph unicode="&#x2019;" horiz-adv-x="473" d="M123 911l37 488h209l-95 -488h-151z" />
<glyph unicode="&#x201a;" horiz-adv-x="466" d="M123 -336l37 420h211l-95 -420h-153z" />
<glyph unicode="&#x201c;" horiz-adv-x="825" d="M102 911l97 488h149l-35 -488h-211zM459 911l94 488h152l-35 -488h-211z" />
<glyph unicode="&#x201d;" horiz-adv-x="829" d="M123 911l37 488h209l-95 -488h-151zM481 911l35 488h209l-94 -488h-150z" />
<glyph unicode="&#x201e;" horiz-adv-x="825" d="M123 -336l37 420h211l-95 -420h-153zM481 -336l35 420h211l-94 -420h-152z" />
<glyph unicode="&#x2022;" horiz-adv-x="557" d="M72 678q0 96 58 153.5t149 57.5q90 0 148 -57.5t58 -153.5t-58 -152.5t-148 -56.5t-148.5 56.5t-58.5 152.5z" />
<glyph unicode="&#x2026;" horiz-adv-x="1355" d="M84 117q0 55 36 91t95 36t96 -36t37 -91q0 -57 -37 -93t-96 -36t-95 36t-36 93zM547 117q0 55 35.5 91t95.5 36q59 0 96 -36t37 -91q0 -57 -37 -93t-96 -36t-95 36t-36 93zM1010 117q0 55 35.5 91t95.5 36q59 0 96 -36t37 -91q0 -57 -37 -93t-96 -36t-95 36t-36 93z" />
<glyph unicode="&#x202f;" horiz-adv-x="354" />
<glyph unicode="&#x2039;" horiz-adv-x="643" d="M78 504v192l354 303l137 -147l-297 -252l297 -254l-137 -147z" />
<glyph unicode="&#x203a;" horiz-adv-x="643" d="M72 346l297 254l-297 252l139 147l352 -303v-192l-352 -305z" />
<glyph unicode="&#x205f;" horiz-adv-x="442" />
<glyph unicode="&#x20ac;" horiz-adv-x="1093" d="M76 500v139h139v82h-139v139h139v117q0 186 96.5 295.5t292.5 109.5q195 0 291 -102t96 -289v-22h-223v53q0 27 -8 56.5t-26.5 55t-49.5 42t-74 16.5q-49 0 -81.5 -18.5t-52 -48t-28 -66.5t-8.5 -72v-127h426v-139h-426v-82h426v-139h-426v-127q0 -37 8.5 -74t29 -64.5 t52 -45t78.5 -17.5q45 0 76 16.5t49.5 41t26.5 55t8 59.5v49h223v-8q0 -197 -97 -301t-290 -104q-195 0 -292 108.5t-97 296.5v115h-139z" />
<glyph unicode="&#x2122;" horiz-adv-x="1245" d="M49 1253v109h385v-109h-127v-395h-131v395h-127zM512 858v504h190l123 -281h4l125 281h183v-504h-123v379h-8l-140 -322h-78l-143 322h-8v-379h-125z" />
<glyph unicode="&#x25fc;" horiz-adv-x="1054" d="M0 0v1055h1055v-1055h-1055z" />
</font>
</defs>
</svg>
