<?xml version="1.0" standalone="no"?>
<!DOCTYPE svg PUBLIC "-//W3C//DTD SVG 1.1//EN" "http://www.w3.org/Graphics/SVG/1.1/DTD/svg11.dtd" >
<svg xmlns="http://www.w3.org/2000/svg" xmlns:xlink="http://www.w3.org/1999/xlink" version="1.1">
<metadata></metadata>
<defs>
<font id="marianina_wd_fyblack" horiz-adv-x="862" >
<font-face units-per-em="2048" ascent="1638" descent="-410" />
<missing-glyph horiz-adv-x="378" />
<glyph unicode="&#xfb01;" horiz-adv-x="1179" d="M109 0v1008q0 207 96 326.5t297 119.5q102 0 159.5 -24.5t104.5 -57.5l-135 -166q-20 16 -45 27.5t-60 11.5q-76 0 -109.5 -49t-33.5 -106v-25h258v-211h-258v-854h-274zM772 1274q0 59 41 101t109 42t106.5 -42t38.5 -101q0 -61 -39 -103.5t-106 -42.5q-68 0 -109 42 t-41 104zM786 0v1065h242l27 -195v-870h-269z" />
<glyph unicode="&#xfb02;" horiz-adv-x="1181" d="M109 0v1008q0 207 96 326.5t297 119.5q102 0 159.5 -24.5t104.5 -57.5l-135 -166q-20 16 -45 27.5t-60 11.5q-76 0 -109.5 -49t-33.5 -106v-25h258v-211h-258v-854h-274zM788 195v1259h242l27 -194v-1260h-246z" />
<glyph unicode="&#xfb03;" horiz-adv-x="1849" d="M109 0v1008q0 207 96 326.5t297 119.5q102 0 159.5 -24.5t104.5 -57.5l-135 -166q-20 16 -45 27.5t-60 11.5q-76 0 -109.5 -49t-33.5 -106v-25h258v-211h-258v-854h-274zM780 0v1008q0 207 96.5 326.5t297.5 119.5q102 0 159.5 -24.5t104.5 -57.5l-135 -166 q-20 16 -45 27.5t-60 11.5q-76 0 -109.5 -49t-33.5 -106v-25h258v-211h-258v-854h-275zM1442 1274q0 59 40.5 101t108.5 42t107 -42t39 -101q0 -61 -39 -103.5t-107 -42.5t-108.5 42t-40.5 104zM1456 0v1065h242l26 -195v-870h-268z" />
<glyph unicode="&#xfb04;" horiz-adv-x="1845" d="M102 0v1008q0 207 96.5 326.5t297.5 119.5q102 0 159.5 -24.5t104.5 -57.5l-135 -166q-20 16 -45 27.5t-60 11.5q-76 0 -109.5 -49t-33.5 -106v-25h258v-211h-258v-854h-275zM774 0v1008q0 207 96.5 326.5t296.5 119.5q102 0 159.5 -24.5t105.5 -57.5l-136 -166 q-20 16 -44.5 27.5t-59.5 11.5q-76 0 -109.5 -49t-33.5 -106v-25h258v-211h-258v-854h-275zM1452 195v1259h242l26 -194v-1260h-245z" />
<glyph horiz-adv-x="0" />
<glyph horiz-adv-x="0" />
<glyph unicode="&#xd;" horiz-adv-x="0" />
<glyph unicode=" "  horiz-adv-x="378" />
<glyph unicode="&#x09;" horiz-adv-x="378" />
<glyph unicode="&#xa0;" horiz-adv-x="378" />
<glyph unicode="!" horiz-adv-x="681" d="M184 139q0 66 42 108t114 42q70 0 112 -42t42 -108t-42 -107.5t-112 -41.5q-72 0 -114 41.5t-42 107.5zM203 586v776h276v-971h-252z" />
<glyph unicode="&#x22;" horiz-adv-x="843" d="M100 1403h265l-33 -529h-199zM477 1403h264l-32 -529h-199z" />
<glyph unicode="#" horiz-adv-x="1398" d="M76 358v199h217l88 268h-145v199h210l111 338h231l-110 -338h260l111 338h231l-111 -338h152v-199h-215l-88 -268h143v-199h-207l-116 -358h-234l117 358h-258l-117 -358h-233l116 358h-153zM526 557h258l88 268h-258z" />
<glyph unicode="$" horiz-adv-x="985" d="M88 977v63q0 111 67.5 200t202.5 118v137h271v-133q125 -25 195.5 -110t70.5 -242v-84h-270v94q0 25 -6.5 49.5t-21.5 44t-40 31.5t-63 12q-70 0 -98.5 -40t-28.5 -87v-33q0 -43 36.5 -81.5t133.5 -92.5q82 -43 148.5 -86t113.5 -91t72.5 -107.5t25.5 -135.5v-79 q0 -123 -73.5 -205t-194.5 -115v-137h-271v137q-59 14 -107 40t-84 69t-55.5 104.5t-19.5 147.5v71h275v-92q0 -53 26.5 -96t100.5 -43q72 0 102.5 41t30.5 88v43q0 35 -15.5 63.5t-44 53t-68.5 48t-87 48.5q-74 39 -133.5 79t-101.5 86t-65.5 100t-23.5 122z" />
<glyph unicode="%" horiz-adv-x="1808" d="M68 836v251q0 57 17 110.5t55 94.5t95.5 65.5t137.5 24.5t137 -24.5t94 -65.5t53.5 -94t16.5 -111v-251q0 -61 -17.5 -115.5t-54.5 -94.5t-93 -62.5t-136 -22.5t-137.5 22.5t-95.5 62.5t-55 94t-17 116zM297 829q0 -41 15.5 -71.5t58.5 -30.5q41 0 57 30.5t16 71.5v265 q0 41 -16 71.5t-57 30.5q-43 0 -58.5 -30.5t-15.5 -71.5v-265zM438 0l711 1362h221l-711 -1362h-221zM1135 283v251q0 57 17 110.5t55 94.5t95.5 65.5t137.5 24.5t137 -24.5t94 -65.5t53.5 -94t16.5 -111v-251q0 -61 -17.5 -115.5t-54.5 -94.5t-93 -62.5t-136 -22.5 t-137.5 22.5t-95.5 62.5t-55 94t-17 116zM1364 276q0 -41 15.5 -71.5t58.5 -30.5q41 0 57 30.5t16 71.5v265q0 41 -16 71.5t-57 30.5q-43 0 -58.5 -30.5t-15.5 -71.5v-265z" />
<glyph unicode="&#x26;" horiz-adv-x="1079" d="M104 311v66q0 98 42 169.5t122 131.5q-61 47 -112.5 126t-51.5 189v43q0 72 28 134.5t81 109.5t132 74.5t181 27.5q104 0 179 -27.5t122 -72.5t69 -99.5t22 -109.5v-47q0 -55 -11.5 -103.5t-40 -91.5t-77 -84.5t-121.5 -87.5q-59 -37 -112.5 -68.5t-93.5 -64t-63.5 -68.5 t-23.5 -79v-43q0 -49 30.5 -88t96.5 -39t105.5 45t39.5 113v102h271v-154q0 -152 44 -231.5t168 -79.5v-229q-203 0 -302 71.5t-126 210.5h-12q-41 -35 -102.5 -56t-147.5 -21q-162 0 -249 78.5t-87 252.5zM375 983q0 -63 31.5 -103t74.5 -69q88 55 128 99t40 98v20 q0 47 -30.5 86t-102.5 39q-41 0 -68.5 -11.5t-44 -30.5t-22.5 -44t-6 -51v-33z" />
<glyph unicode="'" horiz-adv-x="464" d="M100 1403h265l-33 -529h-199z" />
<glyph unicode="(" horiz-adv-x="780" d="M160 246v878q0 111 28.5 203t90 159.5t159 104.5t236.5 37h43v-229h-43q-125 0 -184.5 -79t-59.5 -224v-811q0 -147 59.5 -224t184.5 -77h43v-230h-43q-139 0 -236.5 35t-159 99.5t-90 155.5t-28.5 202z" />
<glyph unicode=")" horiz-adv-x="780" d="M59 -16h43q125 0 184.5 76.5t59.5 224.5v811q0 145 -59.5 224t-184.5 79h-43v229h43q139 0 236.5 -37t159 -104.5t90 -159.5t28.5 -203v-878q0 -111 -28.5 -202t-90 -155.5t-158.5 -99.5t-237 -35h-43v230z" />
<glyph unicode="*" horiz-adv-x="681" d="M68 1186l155 61v10l-155 56l82 141l118 -108l15 12l-25 160h164l-33 -158l14 -12l127 106l82 -141l-153 -62v-18l153 -47l-82 -142l-129 115l-14 -12l35 -166h-164l35 166l-10 6l-133 -109z" />
<glyph unicode="+" d="M154 504v225h163v164h226v-164h164v-225h-164v-164h-226v164h-163z" />
<glyph unicode="," horiz-adv-x="444" d="M41 -233l80 493h264l-178 -493h-166z" />
<glyph unicode="-" horiz-adv-x="722" d="M123 535v225h477v-225h-477z" />
<glyph unicode="." horiz-adv-x="442" d="M68 137q0 66 42 107t111 41q70 0 112 -41t42 -107t-42 -107.5t-112 -41.5t-111.5 41.5t-41.5 107.5z" />
<glyph unicode="/" horiz-adv-x="878" d="M10 -182l619 1636h239l-616 -1636h-242z" />
<glyph unicode="0" horiz-adv-x="1005" d="M96 432v498q0 217 100.5 334.5t305.5 117.5t306 -117.5t101 -334.5v-498q0 -217 -102 -334.5t-307 -117.5q-203 0 -303.5 117.5t-100.5 334.5zM365 420q0 -41 5 -78t19 -66.5t41 -47t70 -17.5q41 0 68.5 17.5t43 47t21.5 66.5t6 78v522q0 39 -5 78t-20.5 67.5t-42 47 t-69.5 18.5t-69.5 -18.5t-42 -47t-20.5 -67.5t-5 -78v-522z" />
<glyph unicode="1" horiz-adv-x="845" d="M27 1059l366 303h326v-1362h-270v1094l-263 -217z" />
<glyph unicode="2" horiz-adv-x="995" d="M86 0v252l246 256q88 92 146.5 158.5t94 119t50 96.5t14.5 87v28q0 63 -28.5 110.5t-106.5 47.5q-43 0 -71 -13.5t-44 -36t-22.5 -51t-6.5 -57.5v-49h-268v51q0 84 26.5 155t80 121t131.5 78.5t180 28.5q106 0 182 -27.5t124 -76.5t70.5 -117.5t22.5 -150.5v-39 q0 -59 -17.5 -113.5t-49 -108t-76.5 -107.5t-98 -112l-283 -305h524v-225h-821z" />
<glyph unicode="3" horiz-adv-x="983" d="M88 348v45h268v-39q0 -20 4.5 -45.5t17.5 -47t37.5 -37t65.5 -15.5t67.5 13.5t42 33.5t21.5 45t6 49v92q0 80 -46 123t-169 43h-73v226h73q117 0 166 38.5t49 120.5v33q0 43 -26.5 85t-99.5 42q-41 0 -67 -13.5t-41 -34t-21.5 -46t-6.5 -47.5v-41h-268v28q0 84 25.5 155 t76 121t127 78.5t179.5 28.5q98 0 171.5 -24.5t123 -66.5t74 -96t24.5 -116v-73q0 -106 -53.5 -174t-151.5 -99v-12q100 -35 152.5 -102.5t52.5 -184.5v-100q0 -84 -31 -149.5t-86 -110.5t-129 -68.5t-160 -23.5q-199 0 -297 96t-98 270z" />
<glyph unicode="4" horiz-adv-x="980" d="M66 281v270l438 811h282l-460 -852h286v207h269v-717h-269v281h-546z" />
<glyph unicode="5" horiz-adv-x="1042" d="M113 606v756h790v-234h-524v-239q35 33 84 57.5t133 24.5q164 0 249 -95.5t85 -314.5v-180q0 -84 -25.5 -156.5t-78 -127t-130.5 -86t-182 -31.5t-179 30.5t-124 81.5t-72.5 120t-23.5 144v33h270v-24q0 -23 5 -50.5t20.5 -51t42 -39t67.5 -15.5t67.5 17.5t43 43t22.5 56 t6 57.5v203q0 29 -6 57.5t-22.5 51t-43 35.5t-65.5 13q-68 0 -97.5 -40.5t-39.5 -96.5h-272z" />
<glyph unicode="6" horiz-adv-x="1011" d="M96 389v569q0 197 104.5 310.5t315.5 113.5q199 0 296 -104t97 -287v-35h-268v45q0 25 -6 51.5t-21.5 49t-41 37t-66.5 14.5t-68.5 -16.5t-44 -41t-22.5 -55t-6 -61.5v-188q41 35 97 56t128 21q160 0 241.5 -84t81.5 -268v-127q0 -92 -24.5 -167t-75.5 -129t-127 -83.5 t-180 -29.5q-207 0 -308.5 111.5t-101.5 297.5zM365 362q0 -29 6 -55t22.5 -48.5t43 -36t67.5 -13.5q82 0 110.5 48t28.5 105v134q0 27 -6 54.5t-21.5 49t-41 34.5t-66.5 13t-68.5 -13t-44 -34.5t-23.5 -49.5t-7 -54v-134z" />
<glyph unicode="7" horiz-adv-x="923" d="M68 1128v234h792v-266l-444 -1096h-281l479 1128h-546z" />
<glyph unicode="8" horiz-adv-x="1009" d="M96 322v20q0 61 15.5 109.5t45 89.5t69.5 75.5t89 69.5q-96 59 -157.5 133t-61.5 178v15q0 68 23.5 133t73 118.5t126 86t183.5 32.5q111 0 188.5 -29.5t125.5 -76.5t70.5 -104.5t22.5 -112.5v-21q0 -92 -59 -172t-154 -151q57 -41 97.5 -79t66 -77t37.5 -83t12 -99v-23 q0 -78 -27.5 -146.5t-79.5 -119.5t-128 -79.5t-172 -28.5t-171 26.5t-127 72.5t-80 108.5t-28 134.5zM365 367q0 -23 5 -50.5t20.5 -51t43 -40t70.5 -16.5q39 0 64.5 14.5t41 37t22.5 49t7 50.5v19q0 59 -28.5 100t-110.5 99q-66 -49 -100.5 -93.5t-34.5 -97.5v-20z M365 1001q0 -55 39.5 -94t113.5 -86q57 41 89 82t32 101v10q0 25 -7 50.5t-23.5 47t-42 34.5t-64.5 13q-35 0 -61.5 -13t-43 -32.5t-24.5 -44.5t-8 -47v-21z" />
<glyph unicode="9" horiz-adv-x="1009" d="M96 844v131q0 92 25.5 167t77 128t128 82.5t179.5 29.5q104 0 181 -29.5t127 -85t74.5 -134t24.5 -175.5v-557q0 -190 -103 -305.5t-316 -115.5q-199 0 -297.5 102t-98.5 283v41h275v-46q0 -25 5 -51t19.5 -48.5t40 -37t68.5 -14.5q41 0 67.5 16.5t42 42t21.5 57t6 60.5 v205q-80 -96 -242 -96q-141 0 -223 85t-82 265zM371 866q0 -57 32.5 -102t104.5 -45q70 0 102.5 44t32.5 103v138q0 61 -32.5 105t-104.5 44t-103.5 -43t-31.5 -106v-138z" />
<glyph unicode=":" horiz-adv-x="442" d="M68 137q0 66 42 107t111 41q70 0 112 -41t42 -107t-42 -107.5t-112 -41.5t-111.5 41.5t-41.5 107.5zM68 909q0 66 42 107t111 41q70 0 112 -41t42 -107t-42 -107.5t-112 -41.5t-111.5 41.5t-41.5 107.5z" />
<glyph unicode=";" horiz-adv-x="471" d="M31 -233l80 493h264l-178 -493h-166zM94 909q0 66 42 107t112 41t111.5 -41t41.5 -107t-42 -107.5t-111 -41.5q-70 0 -112 41.5t-42 107.5z" />
<glyph unicode="&#x3c;" d="M143 537v204l553 246v-246l-297 -102l297 -102v-246z" />
<glyph unicode="=" d="M156 350v225h553v-225h-553zM156 662v225h553v-225h-553z" />
<glyph unicode="&#x3e;" d="M166 291v246l297 102l-297 102v246l553 -246v-204z" />
<glyph unicode="?" horiz-adv-x="993" d="M113 954v105q0 66 24.5 124t73.5 103t123 70.5t174 25.5q186 0 278.5 -76.5t92.5 -203.5v-92q0 -39 -6.5 -74t-25 -71t-51 -71.5t-83.5 -78.5q-41 -35 -66.5 -63.5t-39 -60.5t-17.5 -71t-4 -90v-39h-273v64q0 61 5.5 110t21.5 91t48 82t87 85q41 33 66.5 58.5t39 48 t18.5 44t5 48.5v51q0 82 -102 82q-55 0 -85 -31.5t-30 -83.5v-86h-274zM301 139q0 66 41 108t113 42t112.5 -42t40.5 -108t-41 -107.5t-112 -41.5q-72 0 -113 41.5t-41 107.5z" />
<glyph unicode="@" horiz-adv-x="1615" d="M96 324v327q0 117 36 233.5t120 209t222 149.5t343 57t340 -58t216 -150.5t114 -208t33 -228.5v-233q0 -160 -80 -250t-240 -90q-76 0 -131 23.5t-102 76.5q-39 -45 -99.5 -72.5t-140.5 -27.5q-127 0 -199.5 58.5t-72.5 193.5q0 74 19.5 123t53 79.5t79.5 44t98 13.5 q72 0 113.5 -14.5t76.5 -36.5v92q0 57 -20.5 90t-73.5 33q-92 0 -92 -88v-17h-234v17q0 49 15.5 101t54.5 94t101.5 69t158.5 27q74 0 134 -18.5t104 -56.5t69 -95.5t25 -135.5v-272q0 -66 19.5 -91.5t64.5 -25.5q47 0 63 33t16 90v264q0 86 -23.5 168t-80.5 146.5 t-152.5 103.5t-236.5 39q-143 0 -238.5 -40t-152 -104.5t-80 -147.5t-23.5 -169v-309q0 -92 24.5 -169t81 -130t147.5 -83t225 -30h43v-194h-48q-188 0 -319 40t-214 115.5t-120 185t-37 249.5zM709 344q0 -88 84 -88q37 0 64.5 17.5t37.5 45.5v84q-18 10 -42.5 17.5 t-47.5 7.5q-53 0 -74.5 -21.5t-21.5 -62.5z" />
<glyph unicode="A" horiz-adv-x="1054" d="M27 0l348 1362h307l344 -1362h-278l-56 229h-344l-57 -229h-264zM391 459h256l-125 538h-8z" />
<glyph unicode="B" horiz-adv-x="1030" d="M127 0v1362h385q188 0 290.5 -81t102.5 -259v-41q0 -80 -38 -139.5t-87 -93.5q82 -47 119 -119t37 -154v-104q0 -178 -103.5 -274.5t-297.5 -96.5h-408zM395 227h140q72 0 101.5 43t29.5 101v108q0 51 -28 92t-95 41h-148v-385zM395 834h101q70 0 105.5 21.5t35.5 94.5 v74q0 66 -35 85t-106 19h-101v-294z" />
<glyph unicode="C" horiz-adv-x="980" d="M98 432v498q0 217 102.5 334.5t311.5 117.5q197 0 298 -119.5t101 -332.5v-19h-268v47q0 39 -7 74t-22.5 61.5t-41 43t-64.5 16.5q-41 0 -68.5 -17.5t-43 -46t-21.5 -66.5t-6 -79v-526q0 -104 30.5 -155.5t106.5 -51.5q41 0 67.5 15.5t42 42t21.5 61.5t6 73v46h268v-21 q0 -207 -102 -327.5t-303 -120.5q-209 0 -308.5 119.5t-99.5 332.5z" />
<glyph unicode="D" horiz-adv-x="1056" d="M127 0v1362h420q414 0 414 -434v-494q0 -434 -414 -434h-420zM395 229h150q84 0 114.5 54.5t30.5 142.5v512q0 86 -29.5 137t-115.5 51h-150v-897z" />
<glyph unicode="E" horiz-adv-x="901" d="M127 0v1362h709v-236h-441v-284h361v-230h-361v-383h441v-229h-709z" />
<glyph unicode="F" horiz-adv-x="890" d="M127 0v1362h709v-236h-441v-284h361v-230h-361v-612h-268z" />
<glyph unicode="G" horiz-adv-x="1017" d="M96 432v498q0 217 106.5 334.5t305.5 117.5q104 0 181 -30.5t127 -86t76 -133t26 -171.5v-29h-267v45q0 31 -7 62.5t-22.5 56t-42 41t-63.5 16.5q-43 0 -71.5 -17.5t-47 -46t-25.5 -66.5t-7 -81v-506q0 -106 30.5 -165.5t112.5 -59.5t112.5 60.5t30.5 154.5v141h-143v226 h414v-361q0 -217 -107.5 -334.5t-304.5 -117.5q-201 0 -307.5 117.5t-106.5 334.5z" />
<glyph unicode="H" horiz-adv-x="1114" d="M127 0v1362h270v-537h320v537h270v-1362h-270v596h-320v-596h-270z" />
<glyph unicode="I" horiz-adv-x="524" d="M127 0v1362h270v-1362h-270z" />
<glyph unicode="J" horiz-adv-x="667" d="M57 -25v232q66 2 109 21.5t67.5 51t35 73.5t10.5 89v920h268v-905q0 -223 -124 -352.5t-366 -129.5z" />
<glyph unicode="K" horiz-adv-x="1067" d="M127 0v1362h270v-557l342 557h285l-373 -569l393 -793h-301l-276 573l-70 -100v-473h-270z" />
<glyph unicode="L" horiz-adv-x="913" d="M127 0v1362h270v-1133h467v-229h-737z" />
<glyph unicode="M" horiz-adv-x="1378" d="M127 0v1362h291l276 -784h11l276 784h270v-1362h-231v858h-10l-246 -688h-137l-258 688h-11v-858h-231z" />
<glyph unicode="N" horiz-adv-x="1124" d="M127 0v1362h272l365 -905h10v905h225v-1362h-272l-367 879h-8v-879h-225z" />
<glyph unicode="O" horiz-adv-x="1005" d="M96 432v498q0 217 100.5 334.5t305.5 117.5t306 -117.5t101 -334.5v-498q0 -217 -102 -334.5t-307 -117.5q-203 0 -303.5 117.5t-100.5 334.5zM365 420q0 -41 5 -78t19 -66.5t41 -47t70 -17.5q41 0 68.5 17.5t43 47t21.5 66.5t6 78v522q0 39 -6 78t-21.5 67.5t-42 47 t-69.5 18.5t-68.5 -18.5t-41 -47t-20.5 -67.5t-5 -78v-522z" />
<glyph unicode="P" horiz-adv-x="1015" d="M127 0v1362h403q199 0 298.5 -97.5t99.5 -285.5v-102q0 -190 -103.5 -287.5t-296.5 -97.5h-131v-492h-270zM397 723h111q78 0 112.5 38t34.5 109v119q0 72 -35.5 104.5t-111.5 32.5h-111v-403z" />
<glyph unicode="Q" horiz-adv-x="1005" d="M96 432v498q0 217 100.5 334.5t305.5 117.5t306 -117.5t101 -334.5v-498q0 -174 -66.5 -284.5t-199.5 -149.5q0 -18 8 -32.5t28.5 -25t59.5 -16.5t101 -6h69v-225h-121q-219 0 -315 74.5t-98 226.5q-141 35 -210 146.5t-69 291.5zM365 420q0 -41 5 -78t19 -66.5t41 -47 t70 -17.5q41 0 68.5 17.5t43 47t21.5 66.5t6 78v522q0 39 -6 78t-21.5 67.5t-42 47t-69.5 18.5t-68.5 -18.5t-41 -47t-20.5 -67.5t-5 -78v-522z" />
<glyph unicode="R" horiz-adv-x="1046" d="M127 0v1362h412q199 0 297 -92t98 -271v-57q0 -104 -45 -195.5t-141 -132.5l266 -614h-297l-211 553h-109v-553h-270zM397 780h135q131 0 132 142v79q0 63 -34 94t-93 31h-140v-346z" />
<glyph unicode="S" horiz-adv-x="948" d="M78 379v61h272v-80q0 -25 4 -52t17.5 -48.5t38 -36t65.5 -14.5q74 0 100.5 39t26.5 88v37q0 72 -64.5 128t-168.5 111q-70 37 -123 73t-90 77t-56.5 91t-19.5 116v65q0 63 22.5 126t69.5 112t123 79.5t180 30.5q193 0 295 -99t102 -304v-57h-268v77q0 23 -5 49.5 t-19.5 50t-42 39t-70.5 15.5q-66 0 -91.5 -38t-25.5 -85v-31q0 -45 35 -82.5t135 -89.5q78 -41 142.5 -84t110.5 -92t71.5 -109.5t25.5 -133.5v-78q0 -63 -22.5 -126t-69.5 -113t-121.5 -80.5t-181.5 -30.5q-106 0 -181 29.5t-123 83.5t-70.5 127t-22.5 159z" />
<glyph unicode="T" horiz-adv-x="946" d="M39 1124v238h864v-238h-299v-1124h-270v1124h-295z" />
<glyph unicode="U" horiz-adv-x="1062" d="M121 432v930h268v-944q0 -88 33 -147.5t108 -59.5q78 0 110 57.5t32 149.5v944h270v-930q0 -217 -101.5 -334.5t-310.5 -117.5t-309 117.5t-100 334.5z" />
<glyph unicode="V" horiz-adv-x="1001" d="M33 1362h272l189 -995h12l192 995h271l-301 -1362h-334z" />
<glyph unicode="W" horiz-adv-x="1454" d="M37 1362h270l113 -895h10l199 895h184l203 -895h12l121 895h268l-243 -1362h-259l-196 838h-10l-193 -838h-244z" />
<glyph unicode="X" horiz-adv-x="1030" d="M33 1362h282l205 -481h10l193 481h268l-321 -676l327 -686h-284l-211 479h-10l-187 -479h-270l311 694z" />
<glyph unicode="Y" horiz-adv-x="1034" d="M29 1362h280l201 -635h10l207 635h279l-355 -973v-389h-270v391z" />
<glyph unicode="Z" horiz-adv-x="899" d="M55 0v270l523 854h-508v238h772v-266l-525 -867h510v-229h-772z" />
<glyph unicode="[" horiz-adv-x="722" d="M147 -246v1874h502v-231h-231v-1411h231v-232h-502z" />
<glyph unicode="\" horiz-adv-x="876" d="M10 1454h242l614 -1636h-239z" />
<glyph unicode="]" horiz-adv-x="720" d="M72 -14h229v1411h-229v231h499v-1874h-499v232z" />
<glyph unicode="^" d="M102 430l222 512h213l221 -512h-260l-68 213l-68 -213h-260z" />
<glyph unicode="_" horiz-adv-x="999" d="M76 -20h850v-226h-850v226z" />
<glyph unicode="`" horiz-adv-x="1058" d="M326 1423h268l121 -288h-213z" />
<glyph unicode="a" horiz-adv-x="983" d="M90 291v55q0 61 17.5 116.5t54.5 97.5t94 65.5t139 23.5q55 0 97.5 -10t80.5 -27v129q0 55 -20.5 93t-85.5 38q-59 0 -83 -30.5t-24 -93.5v-29h-243v35q0 70 20.5 131t63.5 105t110.5 69.5t161.5 25.5q104 0 175 -25.5t114 -72.5t62.5 -116.5t19.5 -157.5v-434 q0 -70 88 -70v-229q-129 0 -201 24.5t-108 101.5q-39 -59 -95.5 -92.5t-146.5 -33.5q-137 0 -214 77.5t-77 233.5zM360 301q0 -55 23 -85t84 -30q35 0 60.5 11.5t45.5 31.5v220q-23 8 -43 12t-53 4q-63 0 -90 -32t-27 -87v-45z" />
<glyph unicode="b" horiz-adv-x="993" d="M127 0v1454h242l26 -194v-244q41 31 89 50t118 19q141 0 217 -90t76 -264v-352q0 -180 -85 -289.5t-243 -109.5q-82 0 -135 25.5t-94 70.5l-21 -76h-190zM395 223q20 -14 44 -24.5t59 -10.5q72 0 99.5 44t27.5 130v367q0 74 -27 109.5t-88 35.5q-37 0 -63.5 -10 t-51.5 -30v-611z" />
<glyph unicode="c" horiz-adv-x="935" d="M94 397v205q0 109 20.5 198t65.5 152.5t118 98t179 34.5q193 0 282 -109.5t89 -287.5v-55h-256v72q0 78 -26.5 122.5t-86.5 44.5q-70 0 -92 -59t-22 -182v-197q0 -123 21.5 -182t92.5 -59q66 0 89.5 47t23.5 120v72h256v-55q0 -86 -21.5 -160t-67.5 -126t-119 -81.5 t-173 -29.5q-184 0 -278.5 113.5t-94.5 303.5z" />
<glyph unicode="d" horiz-adv-x="999" d="M100 399v250q0 63 10.5 140t43 142.5t95 109.5t167.5 44q59 0 103 -14t79 -41v424h244l26 -194v-969q0 -41 19.5 -61.5t68.5 -20.5v-229q-68 0 -118 5t-85.5 19t-61 39t-44.5 61q-35 -55 -91 -89.5t-150 -34.5q-90 0 -149.5 34.5t-94.5 93t-48.5 134t-13.5 157.5z M369 465q0 -141 23.5 -206.5t99.5 -65.5q41 0 64.5 11t41.5 32v604q-18 16 -39.5 25t-54.5 9q-84 0 -109.5 -67.5t-25.5 -196.5v-145z" />
<glyph unicode="e" horiz-adv-x="954" d="M94 444v174q0 104 21.5 190.5t67.5 148t119 95t175 33.5q113 0 186.5 -34.5t116.5 -98t60.5 -149.5t17.5 -189v-170h-493v-69q0 -86 24.5 -134t93.5 -48q53 0 81 38.5t28 110.5v20h266q0 -78 -20.5 -147.5t-66.5 -121.5t-117.5 -82.5t-176.5 -30.5q-104 0 -178 33.5 t-119 94t-65.5 146.5t-20.5 190zM365 641h225v29q0 92 -21.5 147t-91.5 55q-63 0 -87.5 -47t-24.5 -116v-68z" />
<glyph unicode="f" horiz-adv-x="722" d="M127 0v1008q0 207 96 326.5t297 119.5q102 0 159.5 -24.5t104.5 -57.5l-135 -166q-20 16 -44.5 27.5t-59.5 11.5q-76 0 -110 -49t-34 -106v-25h258v-211h-258v-854h-274z" />
<glyph unicode="g" horiz-adv-x="991" d="M100 381v283q0 201 89.5 311t248.5 110q86 0 137.5 -28.5t86.5 -69.5l20 78h186v-1030q0 -100 -17 -185.5t-61.5 -147.5t-121 -97t-193.5 -35q-182 0 -275.5 79t-93.5 238v23h267v-12q0 -117 104 -117q70 0 95.5 41t25.5 108v152q-35 -49 -82 -75.5t-133 -26.5 q-78 0 -132 28.5t-88 81.5t-48.5 127t-14.5 164zM369 457q0 -135 22.5 -201t97.5 -66q39 0 64 14.5t45 35.5v596q-18 16 -40.5 27t-57.5 11q-74 0 -102.5 -57t-28.5 -164v-196z" />
<glyph unicode="h" horiz-adv-x="1021" d="M127 0v1454h242l26 -194v-240q31 23 82 44t125 21q90 0 147.5 -29.5t90 -88t45 -148.5t12.5 -209v-610h-248l-20 195v419q0 51 -2 97.5t-13.5 82t-35 57t-66.5 21.5q-41 0 -69.5 -12t-47.5 -26v-834h-268z" />
<glyph unicode="i" horiz-adv-x="520" d="M113 1274q0 59 40.5 101t108.5 42t107 -42t39 -101q0 -61 -39 -103.5t-107 -42.5t-108.5 42t-40.5 104zM127 0v1065h242l26 -195v-870h-268z" />
<glyph unicode="j" horiz-adv-x="522" d="M-31 -201q57 0 90 21.5t47.5 61.5t17.5 99.5t3 137.5v946h242l26 -195v-870q0 -127 -28.5 -210t-84 -132t-134 -68.5t-179.5 -19.5v229zM113 1274q0 59 40.5 101t108.5 42q66 0 105 -42t39 -101q0 -61 -39 -103.5t-105 -42.5q-68 0 -108.5 42t-40.5 104z" />
<glyph unicode="k" horiz-adv-x="976" d="M127 0v1454h242l26 -194v-580l269 385h290l-295 -379l291 -686h-282l-195 485l-78 -94v-391h-268z" />
<glyph unicode="l" horiz-adv-x="520" d="M127 195v1259h242l26 -194v-1260h-245z" />
<glyph unicode="m" horiz-adv-x="1519" d="M127 0v1065h188l23 -100q37 49 99.5 84.5t148.5 35.5q92 0 144 -38.5t87 -94.5q35 47 105.5 90t173.5 43q147 0 223 -93t76 -263v-729h-248l-23 195v514q0 35 -3 65.5t-14 52t-31.5 33.5t-55.5 12q-45 0 -73.5 -16t-51.5 -33v-823h-270v707q0 76 -20.5 120.5t-86.5 44.5 q-45 0 -75.5 -17t-47.5 -34v-821h-268z" />
<glyph unicode="n" horiz-adv-x="1024" d="M127 0v1065h192l21 -84q39 39 98.5 71.5t157.5 32.5q152 0 227.5 -93t75.5 -290v-702h-248l-22 195v512q0 80 -25.5 122.5t-87.5 42.5q-43 0 -72.5 -13t-48.5 -28v-831h-268z" />
<glyph unicode="o" horiz-adv-x="964" d="M98 391v283q0 188 94.5 299.5t286.5 111.5q195 0 290 -111.5t95 -299.5v-283q0 -193 -96 -302t-289 -109t-287 110.5t-94 300.5zM369 371q0 -88 26.5 -133t85.5 -45t86 45t27 133v323q0 178 -113 178q-59 0 -85.5 -45t-26.5 -133v-323z" />
<glyph unicode="p" horiz-adv-x="991" d="M123 -430v1495h192l19 -82q47 45 102.5 73.5t138.5 28.5q315 0 316 -405v-274q0 -195 -76 -310.5t-246 -115.5q-57 0 -93 12t-83 35v-263l-28 -194h-242zM393 209q20 -10 42 -15.5t52 -5.5q82 0 109 51.5t27 137.5v313q0 92 -28 138t-95 46q-35 0 -60.5 -11t-46.5 -27 v-627z" />
<glyph unicode="q" horiz-adv-x="991" d="M100 471v184q0 203 88 316.5t250 113.5q86 0 133 -28.5t86 -69.5l23 78h188v-1495h-247l-23 194v271q-33 -23 -77 -39t-109 -16q-88 0 -147.5 29.5t-96.5 90t-52.5 152.5t-15.5 219zM369 461q0 -139 22.5 -205t102.5 -66q35 0 58 9.5t46 29.5v602q-20 20 -44 31.5 t-58 11.5q-78 0 -102.5 -69.5t-24.5 -200.5v-143z" />
<glyph unicode="r" horiz-adv-x="722" d="M127 0v1065h195l20 -92q49 51 108.5 81.5t137.5 30.5q41 0 69.5 -6t53.5 -18l-60 -227q-39 16 -90 16q-47 0 -86 -14.5t-80 -40.5v-795h-268z" />
<glyph unicode="s" horiz-adv-x="874" d="M76 324v14h264v-19q0 -61 21.5 -96t80.5 -35q96 0 97 95q0 23 -6.5 43t-28 40.5t-60 42t-106.5 50.5q-145 57 -203.5 134t-58.5 191q0 51 20.5 104.5t63.5 97.5t110.5 71.5t163.5 27.5q180 0 266 -89t86 -240v-17h-262v31q0 45 -18.5 76t-73.5 31q-47 0 -67.5 -23 t-20.5 -61q0 -25 9 -45.5t33 -40t62.5 -39t100.5 -43.5q74 -31 123 -66t78.5 -76t41 -85t11.5 -93q0 -59 -21.5 -117.5t-65.5 -104.5t-111.5 -74.5t-162.5 -28.5q-193 0 -279.5 92t-86.5 252z" />
<glyph unicode="t" horiz-adv-x="718" d="M121 381v889h241l27 -185v-20h256v-211h-256v-481q0 -72 26.5 -118t106.5 -46q33 0 59.5 7t51.5 20l59 -209q-47 -23 -94 -35t-109 -12q-195 0 -281.5 98t-86.5 303z" />
<glyph unicode="u" horiz-adv-x="1024" d="M111 340v725h270v-713q0 -80 24.5 -119.5t90.5 -39.5q41 0 66.5 13t45.5 32v827h271v-780q0 -33 17 -54.5t71 -21.5v-229q-68 0 -117 5t-84 18t-60.5 38t-46.5 63q-43 -59 -103 -91.5t-153 -32.5q-152 0 -222 87t-70 273z" />
<glyph unicode="v" horiz-adv-x="903" d="M31 1065h272l143 -780h11l143 780h272l-278 -1065h-285z" />
<glyph unicode="w" horiz-adv-x="1415" d="M37 1065h272l113 -637h8l172 637h209l172 -637h10l115 637h270l-233 -1065h-250l-182 653h-17l-180 -653h-248z" />
<glyph unicode="x" horiz-adv-x="909" d="M27 1065h280l148 -322h12l139 322h266l-274 -533l281 -532h-285l-160 319h-10l-125 -319h-266l260 563z" />
<glyph unicode="y" horiz-adv-x="890" d="M31 -201q45 0 89 6.5t82 21.5t65.5 42t37.5 70l14 55l-286 1071h270l137 -715h9l135 715h270l-326 -1157q-20 -74 -58 -136.5t-97.5 -106.5t-143.5 -69.5t-198 -25.5v229z" />
<glyph unicode="z" horiz-adv-x="788" d="M72 0v250l387 588h-371v227h629v-246l-387 -592h372v-227h-630z" />
<glyph unicode="{" horiz-adv-x="870" d="M72 569v226h30q88 0 123 30.5t35 96.5v282q0 227 131 325.5t373 98.5h45v-231h-45q-127 0 -180.5 -59.5t-53.5 -198.5v-248q0 -92 -42 -144.5t-117 -52.5h-35v-24h35q76 0 117.5 -52.5t41.5 -144.5v-254q0 -70 13.5 -115t41 -71.5t71.5 -36.5t108 -10h45v-232h-45 q-242 0 -373 93.5t-131 306.5v288q0 66 -35 96.5t-123 30.5h-30z" />
<glyph unicode="|" horiz-adv-x="651" d="M188 -246v1874h275v-1874h-275z" />
<glyph unicode="}" horiz-adv-x="870" d="M61 -14h45q63 0 107.5 10t72 36.5t41 72t13.5 114.5v254q0 92 42 144.5t118 52.5h35v24h-35q-76 0 -118 52.5t-42 144.5v248q0 139 -53.5 198.5t-180.5 59.5h-45v231h45q242 0 373 -98t131 -326v-282q0 -66 35 -96.5t123 -30.5h31v-226h-31q-88 0 -123 -30.5t-35 -96.5 v-288q0 -213 -131 -306.5t-373 -93.5h-45v232z" />
<glyph unicode="~" horiz-adv-x="860" d="M113 494q0 82 15 141t42 98t60.5 57.5t68.5 18.5q29 0 52.5 -6t54.5 -23q18 -10 47.5 -27.5t52.5 -17.5q16 0 26.5 16.5t10.5 57.5h205q0 -164 -44.5 -239.5t-130.5 -75.5q-63 0 -118 26q-27 12 -50.5 26.5t-46.5 14.5q-18 0 -29.5 -19.5t-11.5 -47.5h-204z" />
<glyph unicode="&#xa1;" horiz-adv-x="681" d="M184 920q0 66 42 107.5t114 41.5q70 0 112 -41.5t42 -107.5t-42 -108t-112 -42q-72 0 -114 42t-42 108zM199 -303v971h252l24 -195v-776h-276z" />
<glyph unicode="&#xa2;" horiz-adv-x="925" d="M88 420v225q0 174 57.5 277.5t186.5 140.5v135h270v-131q240 -78 240 -354v-80h-256v35q0 96 -23.5 150t-89.5 54q-39 0 -61.5 -19t-34.5 -53t-15.5 -81t-3.5 -101v-172q0 -53 3.5 -100t15.5 -81t34.5 -53t61.5 -19q70 0 91.5 57t21.5 147v35h256v-80q0 -141 -60.5 -230 t-179.5 -122v-133h-270v135q-72 20 -119 59t-74.5 92.5t-39 121t-11.5 145.5z" />
<glyph unicode="&#xa3;" horiz-adv-x="1120" d="M102 0v229h123v234h-123v227h123v273q0 193 101.5 306t308.5 113q401 0 401 -424v-40h-266v77q0 27 -7 55.5t-22.5 51t-41 37t-64.5 14.5t-65.5 -14.5t-43 -38t-23.5 -52t-7 -57.5v-301h342v-227h-342v-234h546v-229h-940z" />
<glyph unicode="&#xa4;" horiz-adv-x="1062" d="M106 1157h242l82 -141q16 4 43 6t55 2q29 0 54.5 -2t46.5 -6l80 141h243l-133 -242q49 -43 71.5 -111.5t22.5 -144.5v-73q0 -88 -20.5 -159t-71.5 -118l131 -237h-243l-80 139q-23 -4 -46.5 -5t-54.5 -1q-29 0 -54 1t-48 3l-74 -137h-243l127 239q-47 43 -68 95.5 t-21 130.5v98q0 94 18.5 161.5t72.5 121.5zM416 596q0 -98 23.5 -141t90.5 -43q61 0 88 31.5t27 105.5v84q0 98 -24.5 141t-90.5 43t-90 -43t-24 -141v-37z" />
<glyph unicode="&#xa5;" horiz-adv-x="1126" d="M78 1362h280l201 -528h8l203 528h279l-316 -666h238v-164h-273v-61h273v-164h-273v-307h-272v307h-272v164h272v61h-272v164h229z" />
<glyph unicode="&#xa6;" horiz-adv-x="651" d="M188 -246v819h275v-819h-275zM188 809v819h275v-819h-275z" />
<glyph unicode="&#xa7;" horiz-adv-x="921" d="M92 748q0 63 25.5 108t68.5 82q-41 35 -67.5 78t-26.5 114q0 53 20.5 105.5t64.5 94.5t110.5 67.5t158.5 25.5q190 0 282.5 -89t92.5 -259v-18h-262v24q0 59 -24.5 97.5t-77.5 38.5t-75 -24t-22 -54q0 -35 24 -62.5t57.5 -49t72.5 -40t70 -33.5q137 -66 191 -134t54 -158 q0 -66 -25.5 -117t-66.5 -86q51 -49 67.5 -95.5t16.5 -95.5q0 -59 -22.5 -111.5t-66.5 -92t-109.5 -62t-149.5 -22.5q-190 0 -281.5 89t-91.5 259v18h262v-24q0 -63 20.5 -100.5t80.5 -37.5q43 0 69.5 18.5t26.5 57.5q0 35 -24.5 63.5t-60.5 52t-75 42t-69 33.5 q-127 61 -182.5 129.5t-55.5 167.5zM319 768q0 -18 9.5 -33.5t33 -34t62.5 -40t100 -50.5l47 -22q25 18 25 51q0 35 -36 69.5t-140 79.5l-70 29q-31 -16 -31 -49z" />
<glyph unicode="&#xa8;" horiz-adv-x="1040" d="M207 1276q0 57 39 95t98 38q61 0 98 -38t37 -95q0 -55 -36.5 -93t-98.5 -38q-59 0 -98 38t-39 93zM561 1276q0 57 39 95t98 38q61 0 98.5 -38t37.5 -95q0 -55 -37 -93t-99 -38q-59 0 -98 38t-39 93z" />
<glyph unicode="&#xa9;" horiz-adv-x="1597" d="M96 547v250q0 129 39 247.5t123 210t217 145.5t322 54q190 0 323 -55.5t218 -147.5t124 -210.5t39 -243.5v-252q0 -150 -41 -268.5t-127 -200.5t-219 -125t-317 -43t-316.5 45t-217.5 128t-126 200.5t-41 265.5zM313 506q0 -186 120 -299t364 -113q127 0 219 32t151.5 90 t87 140t27.5 183v297q0 84 -28.5 161.5t-89 138t-151.5 96.5t-216 36q-129 0 -221.5 -37t-150.5 -100.5t-85 -145.5t-27 -172v-307zM461 631v98q0 96 15.5 174t53 132.5t103 84t166.5 29.5q90 0 154.5 -24.5t105.5 -70.5t60.5 -111.5t19.5 -147.5v-45h-230v69 q0 66 -23.5 102.5t-82.5 36.5q-72 0 -92.5 -50t-20.5 -140v-176q0 -88 20.5 -139.5t92.5 -51.5q59 0 82.5 36t23.5 104v69h230v-26q0 -86 -17.5 -155t-57.5 -118t-104.5 -74.5t-158.5 -25.5q-100 0 -166 29.5t-104.5 84t-54 132.5t-15.5 174z" />
<glyph unicode="&#xaa;" horiz-adv-x="663" d="M61 903v39q0 78 47.5 127t139.5 49q41 0 64.5 -6t49.5 -16v84q0 31 -11 50t-46 19q-25 0 -40 -15t-15 -58v-17h-172v21q0 90 54 146t177 56q244 0 244 -233v-238q0 -25 11 -37t40 -12v-145q-94 0 -138 14t-71 62q-25 -35 -61.5 -55.5t-93.5 -20.5q-76 0 -127.5 44 t-51.5 142zM250 909q0 -31 12 -47t43 -16q20 0 32.5 4t24.5 12v135q-14 4 -24 6.5t-27 2.5q-61 0 -61 -66v-31z" />
<glyph unicode="&#xab;" horiz-adv-x="1126" d="M74 485v230l354 305l166 -178l-287 -242l287 -242l-166 -178zM543 485v230l354 305l166 -178l-287 -242l287 -242l-166 -178z" />
<glyph unicode="&#xac;" d="M156 565v226h553v-394h-226v168h-327z" />
<glyph unicode="&#xad;" horiz-adv-x="722" />
<glyph unicode="&#xae;" horiz-adv-x="1296" d="M82 821v113q0 113 31.5 209t100.5 166.5t176.5 111.5t256.5 41q150 0 257.5 -41t176 -111.5t101 -166.5t32.5 -209v-115q0 -113 -32.5 -210t-101 -167.5t-176 -110.5t-257.5 -40t-257 41t-176 111.5t-100.5 168t-31.5 209.5zM285 819q0 -102 25.5 -171.5t72.5 -110.5 t113.5 -58.5t150.5 -17.5t151.5 17.5t115 58.5t72 109.5t24.5 172.5v115q0 102 -26 171t-73 110.5t-113.5 59t-150.5 17.5t-150.5 -17.5t-113.5 -59t-72.5 -110.5t-25.5 -169v-117zM438 580v610h219q104 0 159.5 -50t55.5 -128v-23q0 -47 -19 -83t-58 -56l110 -270h-178 l-86 241h-35v-241h-168zM606 926h33q35 0 50.5 11t15.5 44v25q0 57 -66 57h-33v-137z" />
<glyph unicode="&#xaf;" horiz-adv-x="1058" d="M260 1178v204h539v-204h-539z" />
<glyph unicode="&#xb0;" horiz-adv-x="620" d="M61 1286q0 102 68 166t182 64q117 0 183.5 -63.5t66.5 -166.5q0 -102 -66.5 -165.5t-183.5 -63.5q-115 0 -182.5 63.5t-67.5 165.5zM242 1286q0 -63 69 -63q70 0 70 63t-70 64q-69 -1 -69 -64z" />
<glyph unicode="&#xb1;" d="M156 193v225h553v-225h-553zM156 565v226h163v102h226v-102h164v-226h-164v-102h-226v102h-163z" />
<glyph unicode="&#xb2;" horiz-adv-x="743" d="M78 1108v20q0 49 16.5 95.5t53 81t96 56t143.5 21.5q78 0 132 -17t89 -46t50.5 -69t15.5 -83v-16q0 -76 -55.5 -143.5t-153.5 -157.5l-125 -113h334v-184h-584v201l117 100q119 102 179 161.5t60 108.5v9q0 27 -15 46t-52 19q-39 0 -56.5 -22.5t-17.5 -53.5v-14h-227z " />
<glyph unicode="&#xb3;" horiz-adv-x="745" d="M74 780v31h221v-16q0 -31 15.5 -50.5t56.5 -19.5t56 20.5t15 51.5v16q0 39 -24.5 57.5t-81.5 18.5h-72v172h59q66 0 92.5 18.5t26.5 57.5v8q0 23 -16 38t-53 15q-41 0 -57.5 -16.5t-16.5 -44.5v-9h-221v15q0 102 73.5 170.5t233.5 68.5q76 0 130 -17t89 -46t50.5 -64.5 t15.5 -72.5v-23q0 -57 -34 -101t-87 -65v-8q59 -23 90 -67t31 -103v-35q0 -104 -77 -171.5t-222 -67.5t-219 64.5t-74 174.5z" />
<glyph unicode="&#xb4;" horiz-adv-x="1058" d="M385 1135l121 288h268l-174 -288h-215z" />
<glyph unicode="&#xb5;" horiz-adv-x="1052" d="M139 -430v1495h269v-737q0 -70 26.5 -102.5t87.5 -32.5q41 0 70 13t49 32v827h268v-776q0 -39 17.5 -59.5t70.5 -20.5v-229q-55 0 -96 3t-71.5 14t-52 30.5t-40.5 52.5q-78 -100 -215 -100q-35 0 -63.5 8t-48.5 20v-244l-29 -194h-242z" />
<glyph unicode="&#xb6;" horiz-adv-x="1056" d="M113 1040v13q0 150 64.5 229.5t221.5 79.5h142v-1362h-70v731h-72q-158 0 -222 79t-64 230zM657 0v1362h271v-1362h-271z" />
<glyph unicode="&#xb7;" horiz-adv-x="710" d="M221 713q0 59 40 99t106 40t103.5 -40t37.5 -99t-38 -99.5t-103 -40.5q-66 0 -106 40t-40 100z" />
<glyph unicode="&#xb8;" horiz-adv-x="1058" d="M330 -250h162v-4q0 -23 17 -40t54 -17q72 0 72 67q0 41 -27.5 54.5t-87.5 13.5h-84v176h142v-66h16q92 0 154.5 -37.5t62.5 -138.5q0 -96 -63.5 -152.5t-184.5 -56.5q-119 0 -176 50.5t-57 146.5v4z" />
<glyph unicode="&#xb9;" horiz-adv-x="743" d="M66 1200l262 170h260v-817h-228v588l-176 -111z" />
<glyph unicode="&#xba;" horiz-adv-x="626" d="M66 956v185q0 113 60 177t185 64t186.5 -64.5t61.5 -176.5v-185q0 -111 -62.5 -175t-185.5 -64t-184 64.5t-61 174.5zM250 930q0 -35 13 -56.5t48 -21.5t49.5 21.5t14.5 56.5v239q0 35 -14.5 56.5t-49.5 21.5t-48 -21.5t-13 -56.5v-239z" />
<glyph unicode="&#xbb;" horiz-adv-x="1126" d="M63 358l287 242l-287 242l166 178l355 -305v-230l-355 -305zM532 358l287 242l-287 242l166 178l355 -305v-230l-355 -305z" />
<glyph unicode="&#xbc;" horiz-adv-x="1814" d="M66 1200l262 170h260v-817h-228v588l-176 -111zM481 0l711 1362h221l-711 -1362h-221zM1135 125v229l282 463h238l-307 -508h180v125h205v-434h-205v125h-393z" />
<glyph unicode="&#xbd;" horiz-adv-x="1812" d="M66 1200l262 170h260v-817h-228v588l-176 -111zM440 0l711 1362h221l-711 -1362h-221zM1147 555v20q0 49 16.5 95.5t53 81t96 56t143.5 21.5q78 0 132 -17t89 -46t50.5 -69t15.5 -83v-16q0 -76 -55.5 -143.5t-153.5 -157.5l-125 -113h334v-184h-584v201l117 100 q119 102 179 161.5t60 108.5v9q0 27 -15 46t-52 19q-39 0 -56.5 -22.5t-17.5 -53.5v-14h-227z" />
<glyph unicode="&#xbe;" horiz-adv-x="1816" d="M74 780v31h221v-16q0 -31 15.5 -50.5t56.5 -19.5t56 20.5t15 51.5v16q0 39 -24.5 57.5t-81.5 18.5h-72v172h59q66 0 92.5 18.5t26.5 57.5v8q0 23 -16 38t-53 15q-41 0 -57.5 -16.5t-16.5 -44.5v-9h-221v15q0 102 73.5 170.5t233.5 68.5q76 0 130 -17t89 -46t50.5 -64.5 t15.5 -72.5v-23q0 -57 -34 -101t-87 -65v-8q59 -23 90 -67t31 -103v-35q0 -104 -77 -171.5t-222 -67.5t-219 64.5t-74 174.5zM463 0l711 1362h221l-711 -1362h-221zM1137 125v229l282 463h238l-307 -508h180v125h205v-434h-205v125h-393z" />
<glyph unicode="&#xbf;" horiz-adv-x="991" d="M113 -27v90q0 39 6 75t24.5 71t51 71.5t86.5 79.5q43 33 67.5 62t37.5 60.5t17.5 70.5t4.5 92v39h272v-63q0 -61 -5 -110.5t-21.5 -91.5t-49.5 -82t-88 -85q-41 -35 -66.5 -59.5t-40 -47t-18.5 -45t-4 -49.5v-49q0 -82 105 -82q55 0 84.5 32t29.5 81v88h273v-68v-32.5 t-2 -32.5q-4 -61 -31 -115.5t-76 -94.5t-119.5 -62.5t-165.5 -22.5q-186 0 -279 75.5t-93 204.5zM385 936q0 66 41 107.5t113 41.5t112.5 -41.5t40.5 -107.5t-41 -108t-112 -42q-72 0 -113 42t-41 108z" />
<glyph unicode="&#xc0;" horiz-adv-x="1054" d="M27 0l348 1362h307l344 -1362h-278l-56 229h-344l-57 -229h-264zM324 1720h268l121 -288h-213zM391 459h256l-125 538h-8z" />
<glyph unicode="&#xc1;" horiz-adv-x="1054" d="M27 0l348 1362h307l344 -1362h-278l-56 229h-344l-57 -229h-264zM383 1432l121 288h268l-174 -288h-215zM391 459h256l-125 538h-8z" />
<glyph unicode="&#xc2;" horiz-adv-x="1054" d="M27 0l348 1362h307l344 -1362h-278l-56 229h-344l-57 -229h-264zM227 1432l193 288h217l190 -288h-211l-88 141l-90 -141h-211zM391 459h256l-125 538h-8z" />
<glyph unicode="&#xc3;" horiz-adv-x="1054" d="M27 0l348 1362h307l344 -1362h-278l-56 229h-344l-57 -229h-264zM191 1432v14q0 125 61 184.5t145 59.5q45 0 77 -8.5t56.5 -18.5t47 -18.5t47.5 -8.5q45 0 45 43v17h196v-17q0 -127 -56 -187t-134 -60q-45 0 -79 10t-61.5 22.5t-52 22.5t-49.5 10q-51 0 -51 -51v-14 h-192zM391 459h256l-125 538h-8z" />
<glyph unicode="&#xc4;" horiz-adv-x="1054" d="M27 0l348 1362h307l344 -1362h-278l-56 229h-344l-57 -229h-264zM213 1573q0 57 39 95t98 38q61 0 98 -38t37 -95q0 -55 -36.5 -93t-98.5 -38q-59 0 -98 38t-39 93zM391 459h256l-125 538h-8zM567 1573q0 57 39 95t98 38q61 0 98.5 -38t37.5 -95q0 -55 -37 -93t-99 -38 q-59 0 -98 38t-39 93z" />
<glyph unicode="&#xc5;" horiz-adv-x="1054" d="M27 0l348 1362h307l344 -1362h-278l-56 229h-344l-57 -229h-264zM328 1595q0 88 56 136.5t144 48.5t144.5 -48.5t56.5 -136.5t-56.5 -136t-144.5 -48t-144 48t-56 136zM391 459h256l-125 538h-8zM469 1595q0 -27 14.5 -44t44.5 -17q31 0 45.5 17.5t14.5 43.5 q0 29 -14.5 45.5t-45.5 16.5t-45 -16.5t-14 -45.5z" />
<glyph unicode="&#xc6;" horiz-adv-x="1449" d="M18 0l607 1362h757v-236h-417v-284h340v-230h-340v-383h417v-229h-688v227h-305l-96 -227h-275zM477 457h217v514h-8z" />
<glyph unicode="&#xc7;" horiz-adv-x="980" d="M98 432v498q0 217 102.5 334.5t311.5 117.5q197 0 298 -119.5t101 -332.5v-19h-268v47q0 39 -7 74t-22.5 61.5t-41 43t-64.5 16.5q-41 0 -68.5 -17.5t-43 -46t-21.5 -66.5t-6 -79v-526q0 -104 30.5 -155.5t106.5 -51.5q41 0 67.5 15.5t42 42t21.5 61.5t6 73v46h268v-21 q0 -197 -92 -315.5t-272 -130.5v-48h16q92 0 154.5 -37.5t62.5 -138.5q0 -96 -63.5 -152.5t-184.5 -56.5q-119 0 -176 50.5t-57 146.5v4h162v-4q0 -23 17.5 -40t53.5 -17q72 0 72 67q0 41 -27.5 54.5t-87.5 13.5h-83v166q-158 29 -233 142.5t-75 299.5z" />
<glyph unicode="&#xc8;" horiz-adv-x="901" d="M127 0v1362h709v-236h-441v-284h361v-230h-361v-383h441v-229h-709zM269 1720h268l121 -288h-213z" />
<glyph unicode="&#xc9;" horiz-adv-x="901" d="M127 0v1362h709v-236h-441v-284h361v-230h-361v-383h441v-229h-709zM328 1432l121 288h268l-174 -288h-215z" />
<glyph unicode="&#xca;" horiz-adv-x="901" d="M127 0v1362h709v-236h-441v-284h361v-230h-361v-383h441v-229h-709zM172 1432l193 288h217l190 -288h-211l-88 141l-90 -141h-211z" />
<glyph unicode="&#xcb;" horiz-adv-x="901" d="M127 0v1362h709v-236h-441v-284h361v-230h-361v-383h441v-229h-709zM158 1573q0 57 39 95t98 38q61 0 98 -38t37 -95q0 -55 -36.5 -93t-98.5 -38q-59 0 -98 38t-39 93zM512 1573q0 57 39 95t98 38q61 0 98.5 -38t37.5 -95q0 -55 -37 -93t-99 -38q-59 0 -98 38t-39 93z " />
<glyph unicode="&#xcc;" horiz-adv-x="524" d="M60 1720h268l121 -288h-213zM127 0v1362h270v-1362h-270z" />
<glyph unicode="&#xcd;" horiz-adv-x="524" d="M119 1432l121 288h268l-174 -288h-215zM127 0v1362h270v-1362h-270z" />
<glyph unicode="&#xce;" horiz-adv-x="524" d="M-37 1432l193 288h217l190 -288h-211l-88 141l-90 -141h-211zM127 0v1362h270v-1362h-270z" />
<glyph unicode="&#xcf;" horiz-adv-x="524" d="M-51 1573q0 57 39 95t98 38q61 0 98 -38t37 -95q0 -55 -36.5 -93t-98.5 -38q-59 0 -98 38t-39 93zM127 0v1362h270v-1362h-270zM303 1573q0 57 39 95t98 38q61 0 98.5 -38t37.5 -95q0 -55 -37 -93t-99 -38q-59 0 -98 38t-39 93z" />
<glyph unicode="&#xd0;" horiz-adv-x="1067" d="M31 565v232h102v565h422q412 0 412 -434v-494q0 -434 -412 -434h-422v565h-102zM403 229h150q84 0 114.5 54.5t30.5 142.5v512q0 86 -30.5 137t-114.5 51h-150v-329h154v-232h-154v-336z" />
<glyph unicode="&#xd1;" horiz-adv-x="1124" d="M127 0v1362h272l365 -905h10v905h225v-1362h-272l-367 879h-8v-879h-225zM226 1432v14q0 125 61 184.5t145 59.5q45 0 77 -8.5t56.5 -18.5t47 -18.5t47.5 -8.5q45 0 45 43v17h196v-17q0 -127 -56 -187t-134 -60q-45 0 -79 10t-61.5 22.5t-52 22.5t-49.5 10q-51 0 -51 -51 v-14h-192z" />
<glyph unicode="&#xd2;" horiz-adv-x="1005" d="M96 432v498q0 217 100.5 334.5t305.5 117.5t306 -117.5t101 -334.5v-498q0 -217 -102 -334.5t-307 -117.5q-203 0 -303.5 117.5t-100.5 334.5zM299 1720h268l121 -288h-213zM365 420q0 -41 5 -78t19 -66.5t41 -47t70 -17.5q41 0 68.5 17.5t43 47t21.5 66.5t6 78v522 q0 39 -6 78t-21.5 67.5t-42 47t-69.5 18.5t-68.5 -18.5t-41 -47t-20.5 -67.5t-5 -78v-522z" />
<glyph unicode="&#xd3;" horiz-adv-x="1005" d="M96 432v498q0 217 100.5 334.5t305.5 117.5t306 -117.5t101 -334.5v-498q0 -217 -102 -334.5t-307 -117.5q-203 0 -303.5 117.5t-100.5 334.5zM358 1432l121 288h268l-174 -288h-215zM365 420q0 -41 5 -78t19 -66.5t41 -47t70 -17.5q41 0 68.5 17.5t43 47t21.5 66.5t6 78 v522q0 39 -6 78t-21.5 67.5t-42 47t-69.5 18.5t-68.5 -18.5t-41 -47t-20.5 -67.5t-5 -78v-522z" />
<glyph unicode="&#xd4;" horiz-adv-x="1005" d="M96 432v498q0 217 100.5 334.5t305.5 117.5t306 -117.5t101 -334.5v-498q0 -217 -102 -334.5t-307 -117.5q-203 0 -303.5 117.5t-100.5 334.5zM202 1432l193 288h217l190 -288h-211l-88 141l-90 -141h-211zM365 420q0 -41 5 -78t19 -66.5t41 -47t70 -17.5q41 0 68.5 17.5 t43 47t21.5 66.5t6 78v522q0 39 -6 78t-21.5 67.5t-42 47t-69.5 18.5t-68.5 -18.5t-41 -47t-20.5 -67.5t-5 -78v-522z" />
<glyph unicode="&#xd5;" horiz-adv-x="1005" d="M96 432v498q0 217 100.5 334.5t305.5 117.5t306 -117.5t101 -334.5v-498q0 -217 -102 -334.5t-307 -117.5q-203 0 -303.5 117.5t-100.5 334.5zM166 1432v14q0 125 61 184.5t145 59.5q45 0 77 -8.5t56.5 -18.5t47 -18.5t47.5 -8.5q45 0 45 43v17h196v-17q0 -127 -56 -187 t-134 -60q-45 0 -79 10t-61.5 22.5t-52 22.5t-49.5 10q-51 0 -51 -51v-14h-192zM365 420q0 -41 5 -78t19 -66.5t41 -47t70 -17.5q41 0 68.5 17.5t43 47t21.5 66.5t6 78v522q0 39 -6 78t-21.5 67.5t-42 47t-69.5 18.5t-68.5 -18.5t-41 -47t-20.5 -67.5t-5 -78v-522z" />
<glyph unicode="&#xd6;" horiz-adv-x="1005" d="M96 432v498q0 217 100.5 334.5t305.5 117.5t306 -117.5t101 -334.5v-498q0 -217 -102 -334.5t-307 -117.5q-203 0 -303.5 117.5t-100.5 334.5zM191 1573q0 57 39 95t98 38q61 0 98 -38t37 -95q0 -55 -36.5 -93t-98.5 -38q-59 0 -98 38t-39 93zM365 420q0 -41 5 -78 t19 -66.5t41 -47t70 -17.5q41 0 68.5 17.5t43 47t21.5 66.5t6 78v522q0 39 -6 78t-21.5 67.5t-42 47t-69.5 18.5t-68.5 -18.5t-41 -47t-20.5 -67.5t-5 -78v-522zM545 1573q0 57 39 95t98 38q61 0 98.5 -38t37.5 -95q0 -55 -37 -93t-99 -38q-59 0 -98 38t-39 93z" />
<glyph unicode="&#xd7;" d="M156 500l114 116l-114 117l157 158l117 -115l117 115l158 -158l-115 -117l115 -116l-158 -158l-117 115l-117 -115z" />
<glyph unicode="&#xd8;" horiz-adv-x="1009" d="M96 432v498q0 217 100.5 334.5t305.5 117.5q139 0 233 -59l56 115l120 -56l-75 -157q74 -115 73 -295v-498q0 -217 -102 -334.5t-307 -117.5q-70 0 -125.5 14t-102.5 41l-51 -109l-121 56l72 149q-76 113 -76 301zM365 539l253 534q-16 35 -43.5 57.5t-74.5 22.5 q-43 0 -68.5 -18.5t-41 -47t-20.5 -67.5t-5 -78v-403zM387 276q16 -29 42 -47t71 -18q41 0 68.5 17.5t43 47t21.5 66.5t6 78v387z" />
<glyph unicode="&#xd9;" horiz-adv-x="1062" d="M121 432v930h268v-944q0 -88 33 -147.5t108 -59.5q78 0 110 57.5t32 149.5v944h270v-930q0 -217 -101.5 -334.5t-310.5 -117.5t-309 117.5t-100 334.5zM328 1720h268l121 -288h-213z" />
<glyph unicode="&#xda;" horiz-adv-x="1062" d="M121 432v930h268v-944q0 -88 33 -147.5t108 -59.5q78 0 110 57.5t32 149.5v944h270v-930q0 -217 -101.5 -334.5t-310.5 -117.5t-309 117.5t-100 334.5zM387 1432l121 288h268l-174 -288h-215z" />
<glyph unicode="&#xdb;" horiz-adv-x="1062" d="M121 432v930h268v-944q0 -88 33 -147.5t108 -59.5q78 0 110 57.5t32 149.5v944h270v-930q0 -217 -101.5 -334.5t-310.5 -117.5t-309 117.5t-100 334.5zM231 1432l193 288h217l190 -288h-211l-88 141l-90 -141h-211z" />
<glyph unicode="&#xdc;" horiz-adv-x="1062" d="M121 432v930h268v-944q0 -88 33 -147.5t108 -59.5q78 0 110 57.5t32 149.5v944h270v-930q0 -217 -101.5 -334.5t-310.5 -117.5t-309 117.5t-100 334.5zM217 1573q0 57 39 95t98 38q61 0 98 -38t37 -95q0 -55 -36.5 -93t-98.5 -38q-59 0 -98 38t-39 93zM571 1573 q0 57 39 95t98 38q61 0 98.5 -38t37.5 -95q0 -55 -37 -93t-99 -38q-59 0 -98 38t-39 93z" />
<glyph unicode="&#xdd;" horiz-adv-x="1034" d="M29 1362h280l201 -635h10l207 635h279l-355 -973v-389h-270v391zM373 1432l121 288h268l-174 -288h-215z" />
<glyph unicode="&#xde;" horiz-adv-x="1003" d="M127 0v1362h274v-250h144q86 0 156.5 -24.5t120.5 -72.5t79 -117t29 -157v-120q0 -88 -29 -157t-79 -116t-120.5 -71.5t-156.5 -24.5h-144v-252h-274zM401 483h119q61 0 100 38t39 104v116q0 66 -38.5 103t-100.5 37h-119v-398z" />
<glyph unicode="&#xdf;" horiz-adv-x="991" d="M127 -266v1296q0 94 22.5 173t69.5 134.5t121 86t176 30.5q193 0 284 -90t91 -252v-31q0 -98 -39 -160.5t-117 -97.5q80 -39 120 -109.5t40 -187.5v-198q0 -162 -88 -245t-248 -83h-51v227h22q43 0 69 28t26 81v221q0 131 -113 131h-23v230h23q55 0 82 33.5t27 82.5v80 q0 53 -26 90t-81 37q-70 0 -94.5 -50t-24.5 -116v-1147l-20 -194h-248z" />
<glyph unicode="&#xe0;" horiz-adv-x="983" d="M90 291v55q0 61 17.5 116.5t54.5 97.5t94 65.5t139 23.5q55 0 97.5 -10t80.5 -27v129q0 55 -20.5 93t-85.5 38q-59 0 -83 -30.5t-24 -93.5v-29h-243v35q0 70 20.5 131t63.5 105t110.5 69.5t161.5 25.5q104 0 175 -25.5t114 -72.5t62.5 -116.5t19.5 -157.5v-434 q0 -70 88 -70v-229q-129 0 -201 24.5t-108 101.5q-39 -59 -95.5 -92.5t-146.5 -33.5q-137 0 -214 77.5t-77 233.5zM289 1423h268l121 -288h-213zM360 301q0 -55 23 -85t84 -30q35 0 60.5 11.5t45.5 31.5v220q-23 8 -43 12t-53 4q-63 0 -90 -32t-27 -87v-45z" />
<glyph unicode="&#xe1;" horiz-adv-x="983" d="M90 291v55q0 61 17.5 116.5t54.5 97.5t94 65.5t139 23.5q55 0 97.5 -10t80.5 -27v129q0 55 -20.5 93t-85.5 38q-59 0 -83 -30.5t-24 -93.5v-29h-243v35q0 70 20.5 131t63.5 105t110.5 69.5t161.5 25.5q104 0 175 -25.5t114 -72.5t62.5 -116.5t19.5 -157.5v-434 q0 -70 88 -70v-229q-129 0 -201 24.5t-108 101.5q-39 -59 -95.5 -92.5t-146.5 -33.5q-137 0 -214 77.5t-77 233.5zM348 1135l121 288h268l-174 -288h-215zM360 301q0 -55 23 -85t84 -30q35 0 60.5 11.5t45.5 31.5v220q-23 8 -43 12t-53 4q-63 0 -90 -32t-27 -87v-45z" />
<glyph unicode="&#xe2;" horiz-adv-x="983" d="M90 291v55q0 61 17.5 116.5t54.5 97.5t94 65.5t139 23.5q55 0 97.5 -10t80.5 -27v129q0 55 -20.5 93t-85.5 38q-59 0 -83 -30.5t-24 -93.5v-29h-243v35q0 70 20.5 131t63.5 105t110.5 69.5t161.5 25.5q104 0 175 -25.5t114 -72.5t62.5 -116.5t19.5 -157.5v-434 q0 -70 88 -70v-229q-129 0 -201 24.5t-108 101.5q-39 -59 -95.5 -92.5t-146.5 -33.5q-137 0 -214 77.5t-77 233.5zM192 1135l193 288h217l190 -288h-211l-88 141l-90 -141h-211zM360 301q0 -55 23 -85t84 -30q35 0 60.5 11.5t45.5 31.5v220q-23 8 -43 12t-53 4 q-63 0 -90 -32t-27 -87v-45z" />
<glyph unicode="&#xe3;" horiz-adv-x="983" d="M90 291v55q0 61 17.5 116.5t54.5 97.5t94 65.5t139 23.5q55 0 97.5 -10t80.5 -27v129q0 55 -20.5 93t-85.5 38q-59 0 -83 -30.5t-24 -93.5v-29h-243v35q0 70 20.5 131t63.5 105t110.5 69.5t161.5 25.5q104 0 175 -25.5t114 -72.5t62.5 -116.5t19.5 -157.5v-434 q0 -70 88 -70v-229q-129 0 -201 24.5t-108 101.5q-39 -59 -95.5 -92.5t-146.5 -33.5q-137 0 -214 77.5t-77 233.5zM156 1135v14q0 125 61 184.5t145 59.5q45 0 77 -8.5t56.5 -18.5t47 -18.5t47.5 -8.5q45 0 45 43v17h196v-17q0 -127 -56 -187t-134 -60q-45 0 -79 10 t-61.5 22.5t-52 22.5t-49.5 10q-51 0 -51 -51v-14h-192zM360 301q0 -55 23 -85t84 -30q35 0 60.5 11.5t45.5 31.5v220q-23 8 -43 12t-53 4q-63 0 -90 -32t-27 -87v-45z" />
<glyph unicode="&#xe4;" horiz-adv-x="983" d="M90 291v55q0 61 17.5 116.5t54.5 97.5t94 65.5t139 23.5q55 0 97.5 -10t80.5 -27v129q0 55 -20.5 93t-85.5 38q-59 0 -83 -30.5t-24 -93.5v-29h-243v35q0 70 20.5 131t63.5 105t110.5 69.5t161.5 25.5q104 0 175 -25.5t114 -72.5t62.5 -116.5t19.5 -157.5v-434 q0 -70 88 -70v-229q-129 0 -201 24.5t-108 101.5q-39 -59 -95.5 -92.5t-146.5 -33.5q-137 0 -214 77.5t-77 233.5zM178 1276q0 57 39 95t98 38q61 0 98 -38t37 -95q0 -55 -36.5 -93t-98.5 -38q-59 0 -98 38t-39 93zM360 301q0 -55 23 -85t84 -30q35 0 60.5 11.5t45.5 31.5 v220q-23 8 -43 12t-53 4q-63 0 -90 -32t-27 -87v-45zM532 1276q0 57 39 95t98 38q61 0 98.5 -38t37.5 -95q0 -55 -37 -93t-99 -38q-59 0 -98 38t-39 93z" />
<glyph unicode="&#xe5;" horiz-adv-x="983" d="M90 291v55q0 61 17.5 116.5t54.5 97.5t94 65.5t139 23.5q55 0 97.5 -10t80.5 -27v129q0 55 -20.5 93t-85.5 38q-59 0 -83 -30.5t-24 -93.5v-29h-243v35q0 70 20.5 131t63.5 105t110.5 69.5t161.5 25.5q104 0 175 -25.5t114 -72.5t62.5 -116.5t19.5 -157.5v-434 q0 -70 88 -70v-229q-129 0 -201 24.5t-108 101.5q-39 -59 -95.5 -92.5t-146.5 -33.5q-137 0 -214 77.5t-77 233.5zM293 1298q0 88 56 136.5t144 48.5t144.5 -48.5t56.5 -136.5t-56.5 -136t-144.5 -48t-144 48t-56 136zM360 301q0 -55 23 -85t84 -30q35 0 60.5 11.5 t45.5 31.5v220q-23 8 -43 12t-53 4q-63 0 -90 -32t-27 -87v-45zM434 1298q0 -27 14.5 -44t44.5 -17q31 0 45.5 17.5t14.5 43.5q0 29 -14.5 45.5t-45.5 16.5t-45 -16.5t-14 -45.5z" />
<glyph unicode="&#xe6;" horiz-adv-x="1439" d="M96 291v55q0 61 17.5 116.5t54.5 97.5t94 65.5t139 23.5q55 0 97.5 -10t81.5 -27v99q0 72 -19.5 116.5t-89.5 44.5q-57 0 -80.5 -30.5t-23.5 -93.5v-29h-244v35q0 70 21.5 131t63.5 105t104.5 69.5t144.5 25.5q98 0 158.5 -29.5t111.5 -88.5q43 55 105.5 86.5t158.5 31.5 t163 -32.5t109 -93t61 -147.5t19 -198v-170h-493v-69q0 -86 24.5 -134t94.5 -48q53 0 80.5 38.5t27.5 110.5v20h266q0 -78 -20 -147.5t-65.5 -121.5t-114 -82.5t-162.5 -30.5q-88 0 -153.5 32.5t-112.5 87.5q-61 -66 -137 -93t-168 -27q-313 0 -314 311zM367 301 q0 -55 23.5 -85t82.5 -30q43 0 74.5 17.5t54.5 40.5q-10 41 -16 88t-6 82v35q-23 8 -42.5 12t-54.5 4q-66 0 -91 -32t-25 -87v-45zM850 641h225v29q0 92 -21.5 147t-90.5 55q-63 0 -88 -47t-25 -116v-68z" />
<glyph unicode="&#xe7;" horiz-adv-x="935" d="M94 397v205q0 109 20.5 198t65.5 152.5t118 98t179 34.5q193 0 282 -109.5t89 -287.5v-55h-256v72q0 78 -26.5 122.5t-86.5 44.5q-70 0 -92 -59t-22 -182v-197q0 -123 21.5 -182t92.5 -59q66 0 89.5 47t23.5 120v72h256v-55q0 -164 -77 -271.5t-251 -123.5v-48h17 q92 0 154.5 -37.5t62.5 -138.5q0 -96 -63.5 -152.5t-184.5 -56.5q-119 0 -176.5 50.5t-57.5 146.5v4h162v-4q0 -23 17.5 -40t54.5 -17q72 0 72 67q0 41 -28 54.5t-87 13.5h-84v164q-141 25 -213 133t-72 276z" />
<glyph unicode="&#xe8;" horiz-adv-x="954" d="M94 444v174q0 104 21.5 190.5t67.5 148t119 95t175 33.5q113 0 186.5 -34.5t116.5 -98t60.5 -149.5t17.5 -189v-170h-493v-69q0 -86 24.5 -134t93.5 -48q53 0 81 38.5t28 110.5v20h266q0 -78 -20.5 -147.5t-66.5 -121.5t-117.5 -82.5t-176.5 -30.5q-104 0 -178 33.5 t-119 94t-65.5 146.5t-20.5 190zM275 1423h268l121 -288h-213zM365 641h225v29q0 92 -21.5 147t-91.5 55q-63 0 -87.5 -47t-24.5 -116v-68z" />
<glyph unicode="&#xe9;" horiz-adv-x="954" d="M94 444v174q0 104 21.5 190.5t67.5 148t119 95t175 33.5q113 0 186.5 -34.5t116.5 -98t60.5 -149.5t17.5 -189v-170h-493v-69q0 -86 24.5 -134t93.5 -48q53 0 81 38.5t28 110.5v20h266q0 -78 -20.5 -147.5t-66.5 -121.5t-117.5 -82.5t-176.5 -30.5q-104 0 -178 33.5 t-119 94t-65.5 146.5t-20.5 190zM334 1135l121 288h268l-174 -288h-215zM365 641h225v29q0 92 -21.5 147t-91.5 55q-63 0 -87.5 -47t-24.5 -116v-68z" />
<glyph unicode="&#xea;" horiz-adv-x="954" d="M94 444v174q0 104 21.5 190.5t67.5 148t119 95t175 33.5q113 0 186.5 -34.5t116.5 -98t60.5 -149.5t17.5 -189v-170h-493v-69q0 -86 24.5 -134t93.5 -48q53 0 81 38.5t28 110.5v20h266q0 -78 -20.5 -147.5t-66.5 -121.5t-117.5 -82.5t-176.5 -30.5q-104 0 -178 33.5 t-119 94t-65.5 146.5t-20.5 190zM178 1135l193 288h217l190 -288h-211l-88 141l-90 -141h-211zM365 641h225v29q0 92 -21.5 147t-91.5 55q-63 0 -87.5 -47t-24.5 -116v-68z" />
<glyph unicode="&#xeb;" horiz-adv-x="954" d="M94 444v174q0 104 21.5 190.5t67.5 148t119 95t175 33.5q113 0 186.5 -34.5t116.5 -98t60.5 -149.5t17.5 -189v-170h-493v-69q0 -86 24.5 -134t93.5 -48q53 0 81 38.5t28 110.5v20h266q0 -78 -20.5 -147.5t-66.5 -121.5t-117.5 -82.5t-176.5 -30.5q-104 0 -178 33.5 t-119 94t-65.5 146.5t-20.5 190zM164 1276q0 57 39 95t98 38q61 0 98 -38t37 -95q0 -55 -36.5 -93t-98.5 -38q-59 0 -98 38t-39 93zM365 641h225v29q0 92 -21.5 147t-91.5 55q-63 0 -87.5 -47t-24.5 -116v-68zM518 1276q0 57 39 95t98 38q61 0 98.5 -38t37.5 -95 q0 -55 -37 -93t-99 -38q-59 0 -98 38t-39 93z" />
<glyph unicode="&#xec;" horiz-adv-x="520" d="M58 1423h268l121 -288h-213zM127 0v1065h242l26 -195v-870h-268z" />
<glyph unicode="&#xed;" horiz-adv-x="520" d="M117 1135l121 288h268l-174 -288h-215zM127 0v1065h242l26 -195v-870h-268z" />
<glyph unicode="&#xee;" horiz-adv-x="520" d="M-39 1135l193 288h217l190 -288h-211l-88 141l-90 -141h-211zM127 0v1065h242l26 -195v-870h-268z" />
<glyph unicode="&#xef;" horiz-adv-x="520" d="M-53 1276q0 57 39 95t98 38q61 0 98 -38t37 -95q0 -55 -36.5 -93t-98.5 -38q-59 0 -98 38t-39 93zM127 0v1065h242l26 -195v-870h-268zM301 1276q0 57 39 95t98 38q61 0 98.5 -38t37.5 -95q0 -55 -37 -93t-99 -38q-59 0 -98 38t-39 93z" />
<glyph unicode="&#xf0;" horiz-adv-x="964" d="M98 391v283q0 94 24.5 170t69 129t104.5 82.5t134 29.5q72 0 117 -19t74 -48q-10 29 -34 73t-57 72l-102 -49l-49 80l67 33q-33 10 -66.5 14t-76.5 4h-16v137h18q92 0 169 -19.5t134 -53.5l123 61l49 -80l-94 -49q96 -96 137 -243.5t41 -323.5v-283q0 -188 -96 -299.5 t-289 -111.5t-287 110.5t-94 300.5zM369 371q0 -88 26.5 -133t85.5 -45t86 45t27 133v323q0 178 -113 178q-59 0 -85.5 -45t-26.5 -133v-323z" />
<glyph unicode="&#xf1;" horiz-adv-x="1024" d="M127 0v1065h192l21 -84q39 39 98.5 71.5t157.5 32.5q152 0 227.5 -93t75.5 -290v-702h-248l-22 195v512q0 80 -25.5 122.5t-87.5 42.5q-43 0 -72.5 -13t-48.5 -28v-831h-268zM177 1135v14q0 125 61 184.5t145 59.5q45 0 77 -8.5t56.5 -18.5t47 -18.5t47.5 -8.5 q45 0 45 43v17h196v-17q0 -127 -56 -187t-134 -60q-45 0 -79 10t-61.5 22.5t-52 22.5t-49.5 10q-51 0 -51 -51v-14h-192z" />
<glyph unicode="&#xf2;" horiz-adv-x="964" d="M98 391v283q0 188 94.5 299.5t286.5 111.5q195 0 290 -111.5t95 -299.5v-283q0 -193 -96 -302t-289 -109t-287 110.5t-94 300.5zM279 1423h268l121 -288h-213zM369 371q0 -88 26.5 -133t85.5 -45t86 45t27 133v323q0 178 -113 178q-59 0 -85.5 -45t-26.5 -133v-323z" />
<glyph unicode="&#xf3;" horiz-adv-x="964" d="M98 391v283q0 188 94.5 299.5t286.5 111.5q195 0 290 -111.5t95 -299.5v-283q0 -193 -96 -302t-289 -109t-287 110.5t-94 300.5zM338 1135l121 288h268l-174 -288h-215zM369 371q0 -88 26.5 -133t85.5 -45t86 45t27 133v323q0 178 -113 178q-59 0 -85.5 -45t-26.5 -133 v-323z" />
<glyph unicode="&#xf4;" horiz-adv-x="964" d="M98 391v283q0 188 94.5 299.5t286.5 111.5q195 0 290 -111.5t95 -299.5v-283q0 -193 -96 -302t-289 -109t-287 110.5t-94 300.5zM182 1135l193 288h217l190 -288h-211l-88 141l-90 -141h-211zM369 371q0 -88 26.5 -133t85.5 -45t86 45t27 133v323q0 178 -113 178 q-59 0 -85.5 -45t-26.5 -133v-323z" />
<glyph unicode="&#xf5;" horiz-adv-x="964" d="M98 391v283q0 188 94.5 299.5t286.5 111.5q195 0 290 -111.5t95 -299.5v-283q0 -193 -96 -302t-289 -109t-287 110.5t-94 300.5zM146 1135v14q0 125 61 184.5t145 59.5q45 0 77 -8.5t56.5 -18.5t47 -18.5t47.5 -8.5q45 0 45 43v17h196v-17q0 -127 -56 -187t-134 -60 q-45 0 -79 10t-61.5 22.5t-52 22.5t-49.5 10q-51 0 -51 -51v-14h-192zM369 371q0 -88 26.5 -133t85.5 -45t86 45t27 133v323q0 178 -113 178q-59 0 -85.5 -45t-26.5 -133v-323z" />
<glyph unicode="&#xf6;" horiz-adv-x="964" d="M98 391v283q0 188 94.5 299.5t286.5 111.5q195 0 290 -111.5t95 -299.5v-283q0 -193 -96 -302t-289 -109t-287 110.5t-94 300.5zM170 1276q0 57 39 95t98 38q61 0 98 -38t37 -95q0 -55 -36.5 -93t-98.5 -38q-59 0 -98 38t-39 93zM369 371q0 -88 26.5 -133t85.5 -45t86 45 t27 133v323q0 178 -113 178q-59 0 -85.5 -45t-26.5 -133v-323zM524 1276q0 57 39 95t98 38q61 0 98.5 -38t37.5 -95q0 -55 -37 -93t-99 -38q-59 0 -98 38t-39 93z" />
<glyph unicode="&#xf7;" d="M156 504v225h553v-225h-553zM281 317q0 66 40.5 106t110.5 40t111 -40t41 -106t-41 -105.5t-111 -39.5t-110.5 39.5t-40.5 105.5zM281 915q0 66 40.5 106t110.5 40t111 -40t41 -106t-41 -105.5t-111 -39.5t-110.5 39.5t-40.5 105.5z" />
<glyph unicode="&#xf8;" horiz-adv-x="964" d="M98 391v283q0 188 94.5 299.5t286.5 111.5q129 0 219 -55l45 80l99 -51l-60 -105q41 -53 61.5 -123.5t20.5 -156.5v-283q0 -193 -96 -302t-289 -109q-66 0 -121 14t-98 39l-43 -78l-100 53l59 103q-41 53 -59.5 123.5t-18.5 156.5zM369 451l204 362q-25 59 -92 59 q-59 0 -85.5 -45t-26.5 -133v-243zM385 254q27 -61 96 -61q59 0 86 45t27 133v250z" />
<glyph unicode="&#xf9;" horiz-adv-x="1024" d="M111 340v725h270v-713q0 -80 24.5 -119.5t90.5 -39.5q41 0 66.5 13t45.5 32v827h271v-780q0 -33 17 -54.5t71 -21.5v-229q-68 0 -117 5t-84 18t-60.5 38t-46.5 63q-43 -59 -103 -91.5t-153 -32.5q-152 0 -222 87t-70 273zM310 1423h268l121 -288h-213z" />
<glyph unicode="&#xfa;" horiz-adv-x="1024" d="M111 340v725h270v-713q0 -80 24.5 -119.5t90.5 -39.5q41 0 66.5 13t45.5 32v827h271v-780q0 -33 17 -54.5t71 -21.5v-229q-68 0 -117 5t-84 18t-60.5 38t-46.5 63q-43 -59 -103 -91.5t-153 -32.5q-152 0 -222 87t-70 273zM369 1135l121 288h268l-174 -288h-215z" />
<glyph unicode="&#xfb;" horiz-adv-x="1024" d="M111 340v725h270v-713q0 -80 24.5 -119.5t90.5 -39.5q41 0 66.5 13t45.5 32v827h271v-780q0 -33 17 -54.5t71 -21.5v-229q-68 0 -117 5t-84 18t-60.5 38t-46.5 63q-43 -59 -103 -91.5t-153 -32.5q-152 0 -222 87t-70 273zM213 1135l193 288h217l190 -288h-211l-88 141 l-90 -141h-211z" />
<glyph unicode="&#xfc;" horiz-adv-x="1024" d="M111 340v725h270v-713q0 -80 24.5 -119.5t90.5 -39.5q41 0 66.5 13t45.5 32v827h271v-780q0 -33 17 -54.5t71 -21.5v-229q-68 0 -117 5t-84 18t-60.5 38t-46.5 63q-43 -59 -103 -91.5t-153 -32.5q-152 0 -222 87t-70 273zM199 1276q0 57 39 95t98 38q61 0 98 -38t37 -95 q0 -55 -36.5 -93t-98.5 -38q-59 0 -98 38t-39 93zM553 1276q0 57 39 95t98 38q61 0 98.5 -38t37.5 -95q0 -55 -37 -93t-99 -38q-59 0 -98 38t-39 93z" />
<glyph unicode="&#xfd;" horiz-adv-x="890" d="M31 -201q45 0 89 6.5t82 21.5t65.5 42t37.5 70l14 55l-286 1071h270l137 -715h9l135 715h270l-326 -1157q-20 -74 -58 -136.5t-97.5 -106.5t-143.5 -69.5t-198 -25.5v229zM301 1135l121 288h268l-174 -288h-215z" />
<glyph unicode="&#xfe;" horiz-adv-x="995" d="M127 -430v1884h242l26 -194v-244q41 33 88 51t119 18q143 0 218 -95t75 -283v-304q0 -193 -86 -308t-240 -115q-63 0 -104 13t-70 32v-455h-268zM395 219q20 -12 44 -21.5t61 -9.5q72 0 98.5 46.5t26.5 148.5v322q0 86 -25 127.5t-90 41.5q-37 0 -63.5 -10t-51.5 -30 v-615z" />
<glyph unicode="&#xff;" horiz-adv-x="890" d="M31 -201q45 0 89 6.5t82 21.5t65.5 42t37.5 70l14 55l-286 1071h270l137 -715h9l135 715h270l-326 -1157q-20 -74 -58 -136.5t-97.5 -106.5t-143.5 -69.5t-198 -25.5v229zM133 1276q0 57 39 95t98 38q61 0 98 -38t37 -95q0 -55 -36.5 -93t-98.5 -38q-59 0 -98 38t-39 93z M487 1276q0 57 39 95t98 38q61 0 98.5 -38t37.5 -95q0 -55 -37 -93t-99 -38q-59 0 -98 38t-39 93z" />
<glyph unicode="&#x152;" horiz-adv-x="1417" d="M96 434v508q0 217 101.5 328.5t261.5 111.5q84 0 134 -25.5t87 -53.5v59h672v-236h-439v-284h357v-230h-357v-383h439v-229h-672v63q-37 -35 -87 -59t-140 -24q-78 0 -143.5 30.5t-112.5 89t-74 142.5t-27 192zM365 422q0 -43 5 -81t20.5 -67.5t42 -46t69.5 -16.5 q41 0 67.5 17.5t42 47t21.5 66.5t6 78v536q0 37 -6 73t-21.5 63.5t-42 44t-67.5 16.5q-43 0 -69.5 -16.5t-42 -44t-20.5 -63.5t-5 -73v-534z" />
<glyph unicode="&#x153;" horiz-adv-x="1458" d="M102 391v283q0 190 96.5 300.5t270.5 110.5q96 0 156.5 -31.5t109.5 -97.5q51 63 113.5 96t157.5 33q100 0 168.5 -34.5t110.5 -98t59.5 -149.5t17.5 -189v-170h-494v-69q0 -84 23.5 -133t95.5 -49q53 0 81 38.5t28 110.5v20h266q0 -78 -20.5 -147.5t-63.5 -121.5 t-111.5 -82.5t-162.5 -30.5t-157 30.5t-114 93.5q-53 -59 -114.5 -91.5t-159.5 -32.5q-168 0 -262.5 110.5t-94.5 300.5zM373 410q0 -111 23.5 -164t88.5 -53q59 0 86 45t27 135v291q0 111 -26.5 159.5t-86.5 48.5q-59 0 -85.5 -45t-26.5 -133v-284zM868 641h226v29 q0 90 -21.5 146t-91.5 56q-63 0 -88 -46t-25 -115v-70z" />
<glyph unicode="&#x178;" horiz-adv-x="1034" d="M29 1362h280l201 -635h10l207 635h279l-355 -973v-389h-270v391zM205 1573q0 57 39 95t98 38q61 0 98 -38t37 -95q0 -55 -36.5 -93t-98.5 -38q-59 0 -98 38t-39 93zM559 1573q0 57 39 95t98 38q61 0 98.5 -38t37.5 -95q0 -55 -37 -93t-99 -38q-59 0 -98 38t-39 93z" />
<glyph unicode="&#x2c6;" horiz-adv-x="1058" d="M229 1135l193 288h217l190 -288h-211l-88 141l-90 -141h-211z" />
<glyph unicode="&#x2dc;" horiz-adv-x="1058" d="M193 1135v14q0 125 61 184.5t145 59.5q45 0 77 -8.5t56.5 -18.5t47 -18.5t47.5 -8.5q45 0 45 43v17h196v-17q0 -127 -56 -187t-134 -60q-45 0 -79 10t-61.5 22.5t-52 22.5t-49.5 10q-51 0 -51 -51v-14h-192z" />
<glyph unicode="&#x2000;" horiz-adv-x="890" />
<glyph unicode="&#x2001;" horiz-adv-x="1780" />
<glyph unicode="&#x2002;" horiz-adv-x="890" />
<glyph unicode="&#x2003;" horiz-adv-x="1780" />
<glyph unicode="&#x2004;" horiz-adv-x="593" />
<glyph unicode="&#x2005;" horiz-adv-x="445" />
<glyph unicode="&#x2006;" horiz-adv-x="296" />
<glyph unicode="&#x2007;" horiz-adv-x="296" />
<glyph unicode="&#x2008;" horiz-adv-x="222" />
<glyph unicode="&#x2009;" horiz-adv-x="356" />
<glyph unicode="&#x200a;" horiz-adv-x="98" />
<glyph unicode="&#x2010;" horiz-adv-x="722" d="M123 535v225h477v-225h-477z" />
<glyph unicode="&#x2011;" horiz-adv-x="722" d="M123 535v225h477v-225h-477z" />
<glyph unicode="&#x2012;" horiz-adv-x="722" d="M123 535v225h477v-225h-477z" />
<glyph unicode="&#x2013;" horiz-adv-x="1024" d="M123 535v225h778v-225h-778z" />
<glyph unicode="&#x2014;" horiz-adv-x="2048" d="M123 535v225h1802v-225h-1802z" />
<glyph unicode="&#x2018;" horiz-adv-x="479" d="M90 874l103 529h180l-33 -529h-250z" />
<glyph unicode="&#x2019;" horiz-adv-x="485" d="M113 874l32 529h250l-102 -529h-180z" />
<glyph unicode="&#x201a;" horiz-adv-x="479" d="M113 -350l32 442h252l-102 -442h-182z" />
<glyph unicode="&#x201c;" horiz-adv-x="854" d="M90 874l103 529h180l-33 -529h-250zM463 874l102 529h180l-32 -529h-250z" />
<glyph unicode="&#x201d;" horiz-adv-x="860" d="M113 874l32 529h250l-102 -529h-180zM487 874l33 529h250l-102 -529h-181z" />
<glyph unicode="&#x201e;" horiz-adv-x="854" d="M113 -350l32 442h252l-102 -442h-182zM487 -350l33 442h252l-102 -442h-183z" />
<glyph unicode="&#x2022;" horiz-adv-x="589" d="M61 682q0 109 66 173.5t168 64.5t167.5 -64.5t65.5 -173.5t-65.5 -173.5t-167.5 -64.5t-168 64.5t-66 173.5z" />
<glyph unicode="&#x2026;" horiz-adv-x="1384" d="M68 137q0 66 42 107t111 41q70 0 112 -41t42 -107t-42 -107.5t-112 -41.5t-111.5 41.5t-41.5 107.5zM539 137q0 66 42 107t111 41q70 0 112 -41t42 -107t-42 -107.5t-112 -41.5t-111.5 41.5t-41.5 107.5zM1010 137q0 66 42 107t111 41q70 0 112 -41t42 -107t-42 -107.5 t-112 -41.5t-111.5 41.5t-41.5 107.5z" />
<glyph unicode="&#x202f;" horiz-adv-x="356" />
<glyph unicode="&#x2039;" horiz-adv-x="657" d="M74 485v230l354 305l166 -178l-287 -242l287 -242l-166 -178z" />
<glyph unicode="&#x203a;" horiz-adv-x="657" d="M63 358l287 242l-287 242l166 178l355 -305v-230l-355 -305z" />
<glyph unicode="&#x205f;" horiz-adv-x="445" />
<glyph unicode="&#x20ac;" horiz-adv-x="1112" d="M68 485v164h139v62h-139v163h139v95q0 188 101.5 300.5t303.5 112.5q205 0 305.5 -104t100.5 -307v-25h-268v62q0 23 -7.5 48t-22.5 46.5t-40 36t-62 14.5q-43 0 -69.5 -16.5t-43 -42t-22.5 -56t-6 -57.5v-107h408v-163h-408v-62h408v-164h-408v-106q0 -31 7.5 -60.5 t23.5 -54t43 -39t67 -14.5q37 0 62 13.5t40 35t22.5 48t7.5 50.5v58h268v-8q0 -213 -102.5 -320.5t-303.5 -107.5q-203 0 -304 110.5t-101 302.5v92h-139z" />
<glyph unicode="&#x2122;" horiz-adv-x="1269" d="M51 1235v127h389v-127h-118v-377h-154v377h-117zM512 858v504h217l111 -254h4l110 254h211v-504h-145v356h-6l-129 -301h-86l-133 301h-9v-356h-145z" />
<glyph unicode="&#x25fc;" horiz-adv-x="1064" d="M0 0v1065h1065v-1065h-1065z" />
</font>
</defs>
</svg>
